<svg width="274" height="260" viewBox="0 0 274 260" fill="none" xmlns="http://www.w3.org/2000/svg">
<rect width="274" height="260" fill="white"/>
<circle cx="173.5" cy="35.5" r="7.5" fill="#288620"/>
<path d="M42.1973 208V187.053H46.2256L53.3301 202.946L60.2881 187.053H64.1699V208H60.5811V193.41L54.8975 208H51.5869L45.7861 193.41V208H42.1973ZM75.0098 187.053V201.965C75.0098 205.988 72.251 208 66.7334 208V204.631C69.6631 204.631 71.1279 203.742 71.1279 201.965V187.053H75.0098ZM88.1494 208H84.165L93.0566 187.053H97.2314L106.313 208H102.139L99.751 202.287H92.793L94.126 198.918H98.3447L95.0488 191.052L88.1494 208ZM108.511 207.268V204.045C110.22 204.729 112.192 205.07 114.429 205.07C116.099 205.07 116.934 204.533 116.934 203.459C116.934 202.434 116.372 201.921 115.249 201.921H112.466C109.341 201.921 107.778 200.383 107.778 197.307C107.778 194.084 110.059 192.473 114.619 192.473C116.553 192.473 118.374 192.766 120.083 193.352V196.574C118.374 195.891 116.519 195.549 114.517 195.549C112.417 195.549 111.367 196.086 111.367 197.16C111.367 198.186 111.978 198.698 113.198 198.698H115.688C119.106 198.698 120.815 200.236 120.815 203.312C120.815 206.535 118.638 208.146 114.282 208.146C112.144 208.146 110.22 207.854 108.511 207.268ZM123.54 207.268V204.045C125.249 204.729 127.222 205.07 129.458 205.07C131.128 205.07 131.963 204.533 131.963 203.459C131.963 202.434 131.401 201.921 130.278 201.921H127.495C124.37 201.921 122.808 200.383 122.808 197.307C122.808 194.084 125.088 192.473 129.648 192.473C131.582 192.473 133.403 192.766 135.112 193.352V196.574C133.403 195.891 131.548 195.549 129.546 195.549C127.446 195.549 126.396 196.086 126.396 197.16C126.396 198.186 127.007 198.698 128.228 198.698H130.718C134.136 198.698 135.845 200.236 135.845 203.312C135.845 206.535 133.667 208.146 129.312 208.146C127.173 208.146 125.249 207.854 123.54 207.268ZM141.719 200.251C141.719 203.464 142.964 205.07 145.454 205.07C147.944 205.07 149.189 203.464 149.189 200.251C149.189 197.116 147.944 195.549 145.454 195.549C142.964 195.549 141.719 197.116 141.719 200.251ZM137.837 200.31C137.837 195.153 140.376 192.575 145.454 192.575C150.532 192.575 153.071 195.153 153.071 200.31C153.071 205.456 150.532 208.029 145.454 208.029C140.396 208.029 137.856 205.456 137.837 200.31ZM167.354 207.561C166.084 207.854 164.766 208 163.398 208C157.93 208 155.195 205.339 155.195 200.017C155.195 195.085 157.93 192.619 163.398 192.619C164.766 192.619 166.084 192.766 167.354 193.059V196.135C166.084 195.842 164.863 195.695 163.691 195.695C160.615 195.695 159.077 197.136 159.077 200.017C159.077 203.288 160.615 204.924 163.691 204.924C164.863 204.924 166.084 204.777 167.354 204.484V207.561ZM173.799 187.053V190.129H169.917V187.053H173.799ZM173.799 192.619V208H169.917V192.619H173.799ZM176.743 203.21C176.743 200.153 178.97 198.625 183.423 198.625C184.468 198.625 185.513 198.723 186.558 198.918V197.761C186.558 196.384 185.566 195.695 183.584 195.695C181.904 195.695 180.039 195.939 177.988 196.428V193.352C180.039 192.863 181.904 192.619 183.584 192.619C188.154 192.619 190.439 194.309 190.439 197.688V208H188.184L186.807 206.623C185.469 207.541 183.994 208 182.383 208C178.623 208 176.743 206.403 176.743 203.21ZM186.558 201.555C185.581 201.359 184.536 201.262 183.423 201.262C181.558 201.262 180.625 201.896 180.625 203.166C180.625 204.533 181.406 205.217 182.969 205.217C184.258 205.217 185.454 204.816 186.558 204.016V201.555ZM193.896 190.129H196.768L197.354 192.619H201.221V195.695H197.778V202.771C197.778 204.206 198.398 204.924 199.639 204.924H201.221V208H197.764C195.186 208 193.896 206.618 193.896 203.854V190.129ZM210.361 192.619C215.029 192.619 217.363 195.002 217.363 199.768C217.363 200.402 217.319 201.037 217.231 201.672H207.021C207.021 203.84 208.613 204.924 211.797 204.924C213.35 204.924 214.902 204.777 216.455 204.484V207.561C215.098 207.854 213.447 208 211.504 208C205.928 208 203.14 205.378 203.14 200.134C203.14 195.124 205.547 192.619 210.361 192.619ZM207.021 198.977H213.584V198.859C213.584 196.73 212.51 195.666 210.361 195.666C208.311 195.666 207.197 196.77 207.021 198.977ZM220.278 207.268V204.045C221.987 204.729 223.96 205.07 226.196 205.07C227.866 205.07 228.701 204.533 228.701 203.459C228.701 202.434 228.14 201.921 227.017 201.921H224.233C221.108 201.921 219.546 200.383 219.546 197.307C219.546 194.084 221.826 192.473 226.387 192.473C228.32 192.473 230.142 192.766 231.851 193.352V196.574C230.142 195.891 228.286 195.549 226.284 195.549C224.185 195.549 223.135 196.086 223.135 197.16C223.135 198.186 223.745 198.698 224.966 198.698H227.456C230.874 198.698 232.583 200.236 232.583 203.312C232.583 206.535 230.405 208.146 226.05 208.146C223.911 208.146 221.987 207.854 220.278 207.268Z" fill="#288620"/>
<path d="M36.324 227.024C36.324 227.744 36.088 228.324 35.616 228.764C35.144 229.204 34.436 229.424 33.492 229.424H31.8V233H30.96V224.612H33.492C34.428 224.612 35.132 224.832 35.604 225.272C36.084 225.712 36.324 226.296 36.324 227.024ZM33.492 228.704C34.804 228.704 35.46 228.144 35.46 227.024C35.46 226.464 35.304 226.04 34.992 225.752C34.68 225.464 34.18 225.32 33.492 225.32H31.8V228.704H33.492ZM42.1974 233L40.1214 229.496H38.5734V233H37.7334V224.612H40.2534C41.1894 224.612 41.8974 224.836 42.3774 225.284C42.8654 225.732 43.1094 226.32 43.1094 227.048C43.1094 227.656 42.9334 228.176 42.5814 228.608C42.2374 229.032 41.7254 229.308 41.0454 229.436L43.2054 233H42.1974ZM38.5734 228.812H40.2654C40.9214 228.812 41.4134 228.652 41.7414 228.332C42.0774 228.012 42.2454 227.584 42.2454 227.048C42.2454 226.496 42.0854 226.072 41.7654 225.776C41.4454 225.472 40.9414 225.32 40.2534 225.32H38.5734V228.812ZM48.5444 233.084C47.7684 233.084 47.0644 232.904 46.4324 232.544C45.8004 232.176 45.3004 231.668 44.9324 231.02C44.5724 230.364 44.3924 229.624 44.3924 228.8C44.3924 227.976 44.5724 227.24 44.9324 226.592C45.3004 225.936 45.8004 225.428 46.4324 225.068C47.0644 224.7 47.7684 224.516 48.5444 224.516C49.3284 224.516 50.0364 224.7 50.6684 225.068C51.3004 225.428 51.7964 225.936 52.1564 226.592C52.5164 227.24 52.6964 227.976 52.6964 228.8C52.6964 229.624 52.5164 230.364 52.1564 231.02C51.7964 231.668 51.3004 232.176 50.6684 232.544C50.0364 232.904 49.3284 233.084 48.5444 233.084ZM48.5444 232.352C49.1684 232.352 49.7284 232.208 50.2244 231.92C50.7204 231.632 51.1124 231.22 51.4004 230.684C51.6884 230.14 51.8324 229.512 51.8324 228.8C51.8324 228.088 51.6884 227.464 51.4004 226.928C51.1124 226.392 50.7204 225.98 50.2244 225.692C49.7284 225.404 49.1684 225.26 48.5444 225.26C47.9204 225.26 47.3604 225.404 46.8644 225.692C46.3684 225.98 45.9764 226.392 45.6884 226.928C45.4004 227.464 45.2564 228.088 45.2564 228.8C45.2564 229.512 45.4004 230.14 45.6884 230.684C45.9764 231.22 46.3684 231.632 46.8644 231.92C47.3604 232.208 47.9204 232.352 48.5444 232.352ZM58.1094 224.612V230.96C58.1094 231.6 57.9134 232.116 57.5214 232.508C57.1294 232.892 56.6054 233.084 55.9494 233.084C55.2694 233.084 54.7254 232.88 54.3174 232.472C53.9174 232.056 53.7174 231.496 53.7174 230.792H54.5694C54.5774 231.248 54.6894 231.62 54.9054 231.908C55.1294 232.196 55.4774 232.34 55.9494 232.34C56.3974 232.34 56.7294 232.208 56.9454 231.944C57.1614 231.68 57.2694 231.352 57.2694 230.96V224.612H58.1094ZM61.0617 225.296V228.428H64.2417V229.124H61.0617V232.304H64.6017V233H60.2217V224.6H64.6017V225.296H61.0617ZM65.8729 228.8C65.8729 227.976 66.0529 227.24 66.4129 226.592C66.7729 225.936 67.2649 225.428 67.8889 225.068C68.5129 224.7 69.2089 224.516 69.9769 224.516C70.9129 224.516 71.7129 224.74 72.3769 225.188C73.0489 225.628 73.5369 226.252 73.8409 227.06H72.8569C72.6169 226.492 72.2489 226.048 71.7529 225.728C71.2649 225.408 70.6729 225.248 69.9769 225.248C69.3609 225.248 68.8049 225.392 68.3089 225.68C67.8209 225.968 67.4369 226.384 67.1569 226.928C66.8769 227.464 66.7369 228.088 66.7369 228.8C66.7369 229.512 66.8769 230.136 67.1569 230.672C67.4369 231.208 67.8209 231.62 68.3089 231.908C68.8049 232.196 69.3609 232.34 69.9769 232.34C70.6729 232.34 71.2649 232.184 71.7529 231.872C72.2489 231.552 72.6169 231.112 72.8569 230.552H73.8409C73.5369 231.352 73.0489 231.972 72.3769 232.412C71.7049 232.852 70.9049 233.072 69.9769 233.072C69.2089 233.072 68.5129 232.892 67.8889 232.532C67.2649 232.164 66.7729 231.656 66.4129 231.008C66.0529 230.36 65.8729 229.624 65.8729 228.8ZM80.4227 224.612V225.308H78.0947V233H77.2547V225.308H74.9147V224.612H80.4227ZM85.882 225.296V228.428H89.062V229.124H85.882V232.304H89.422V233H85.042V224.6H89.422V225.296H85.882ZM97.4012 233H96.5612L91.9172 225.944V233H91.0772V224.612H91.9172L96.5612 231.656V224.612H97.4012V233ZM105.904 227.06C105.664 226.508 105.296 226.076 104.8 225.764C104.312 225.444 103.736 225.284 103.072 225.284C102.448 225.284 101.888 225.428 101.392 225.716C100.896 226.004 100.504 226.416 100.216 226.952C99.9278 227.48 99.7838 228.096 99.7838 228.8C99.7838 229.504 99.9278 230.124 100.216 230.66C100.504 231.196 100.896 231.608 101.392 231.896C101.888 232.184 102.448 232.328 103.072 232.328C103.656 232.328 104.18 232.204 104.644 231.956C105.116 231.7 105.492 231.34 105.772 230.876C106.06 230.404 106.224 229.856 106.264 229.232H102.736V228.548H107.152V229.16C107.112 229.896 106.912 230.564 106.552 231.164C106.192 231.756 105.708 232.224 105.1 232.568C104.5 232.912 103.824 233.084 103.072 233.084C102.296 233.084 101.592 232.904 100.96 232.544C100.328 232.176 99.8278 231.668 99.4598 231.02C99.0998 230.364 98.9198 229.624 98.9198 228.8C98.9198 227.976 99.0998 227.24 99.4598 226.592C99.8278 225.936 100.328 225.428 100.96 225.068C101.592 224.7 102.296 224.516 103.072 224.516C103.968 224.516 104.752 224.74 105.424 225.188C106.096 225.636 106.584 226.26 106.888 227.06H105.904ZM109.53 224.612V233H108.69V224.612H109.53ZM117.757 233H116.917L112.273 225.944V233H111.433V224.612H112.273L116.917 231.656V224.612H117.757V233ZM120.499 225.296V228.428H123.679V229.124H120.499V232.304H124.039V233H119.659V224.6H124.039V225.296H120.499ZM126.534 225.296V228.428H129.714V229.124H126.534V232.304H130.074V233H125.694V224.6H130.074V225.296H126.534ZM136.194 233L134.118 229.496H132.57V233H131.73V224.612H134.25C135.186 224.612 135.894 224.836 136.374 225.284C136.862 225.732 137.106 226.32 137.106 227.048C137.106 227.656 136.93 228.176 136.578 228.608C136.234 229.032 135.722 229.308 135.042 229.436L137.202 233H136.194ZM132.57 228.812H134.262C134.918 228.812 135.41 228.652 135.738 228.332C136.074 228.012 136.242 227.584 136.242 227.048C136.242 226.496 136.082 226.072 135.762 225.776C135.442 225.472 134.938 225.32 134.25 225.32H132.57V228.812ZM139.613 224.612V233H138.773V224.612H139.613ZM147.839 233H146.999L142.355 225.944V233H141.515V224.612H142.355L146.999 231.656V224.612H147.839V233ZM156.341 227.06C156.101 226.508 155.733 226.076 155.237 225.764C154.749 225.444 154.173 225.284 153.509 225.284C152.885 225.284 152.325 225.428 151.829 225.716C151.333 226.004 150.941 226.416 150.653 226.952C150.365 227.48 150.221 228.096 150.221 228.8C150.221 229.504 150.365 230.124 150.653 230.66C150.941 231.196 151.333 231.608 151.829 231.896C152.325 232.184 152.885 232.328 153.509 232.328C154.093 232.328 154.617 232.204 155.081 231.956C155.553 231.7 155.929 231.34 156.209 230.876C156.497 230.404 156.661 229.856 156.701 229.232H153.173V228.548H157.589V229.16C157.549 229.896 157.349 230.564 156.989 231.164C156.629 231.756 156.145 232.224 155.537 232.568C154.937 232.912 154.261 233.084 153.509 233.084C152.733 233.084 152.029 232.904 151.397 232.544C150.765 232.176 150.265 231.668 149.897 231.02C149.537 230.364 149.357 229.624 149.357 228.8C149.357 227.976 149.537 227.24 149.897 226.592C150.265 225.936 150.765 225.428 151.397 225.068C152.029 224.7 152.733 224.516 153.509 224.516C154.405 224.516 155.189 224.74 155.861 225.188C156.533 225.636 157.021 226.26 157.325 227.06H156.341ZM162.037 228.8C162.037 227.976 162.217 227.24 162.577 226.592C162.937 225.936 163.429 225.428 164.053 225.068C164.677 224.7 165.373 224.516 166.141 224.516C167.077 224.516 167.877 224.74 168.541 225.188C169.213 225.628 169.701 226.252 170.005 227.06H169.021C168.781 226.492 168.413 226.048 167.917 225.728C167.429 225.408 166.837 225.248 166.141 225.248C165.525 225.248 164.969 225.392 164.473 225.68C163.985 225.968 163.601 226.384 163.321 226.928C163.041 227.464 162.901 228.088 162.901 228.8C162.901 229.512 163.041 230.136 163.321 230.672C163.601 231.208 163.985 231.62 164.473 231.908C164.969 232.196 165.525 232.34 166.141 232.34C166.837 232.34 167.429 232.184 167.917 231.872C168.413 231.552 168.781 231.112 169.021 230.552H170.005C169.701 231.352 169.213 231.972 168.541 232.412C167.869 232.852 167.069 233.072 166.141 233.072C165.373 233.072 164.677 232.892 164.053 232.532C163.429 232.164 162.937 231.656 162.577 231.008C162.217 230.36 162.037 229.624 162.037 228.8ZM175.447 233.084C174.671 233.084 173.967 232.904 173.335 232.544C172.703 232.176 172.203 231.668 171.835 231.02C171.475 230.364 171.295 229.624 171.295 228.8C171.295 227.976 171.475 227.24 171.835 226.592C172.203 225.936 172.703 225.428 173.335 225.068C173.967 224.7 174.671 224.516 175.447 224.516C176.231 224.516 176.939 224.7 177.571 225.068C178.203 225.428 178.699 225.936 179.059 226.592C179.419 227.24 179.599 227.976 179.599 228.8C179.599 229.624 179.419 230.364 179.059 231.02C178.699 231.668 178.203 232.176 177.571 232.544C176.939 232.904 176.231 233.084 175.447 233.084ZM175.447 232.352C176.071 232.352 176.631 232.208 177.127 231.92C177.623 231.632 178.015 231.22 178.303 230.684C178.591 230.14 178.735 229.512 178.735 228.8C178.735 228.088 178.591 227.464 178.303 226.928C178.015 226.392 177.623 225.98 177.127 225.692C176.631 225.404 176.071 225.26 175.447 225.26C174.823 225.26 174.263 225.404 173.767 225.692C173.271 225.98 172.879 226.392 172.591 226.928C172.303 227.464 172.159 228.088 172.159 228.8C172.159 229.512 172.303 230.14 172.591 230.684C172.879 231.22 173.271 231.632 173.767 231.92C174.263 232.208 174.823 232.352 175.447 232.352ZM187.46 233H186.62L181.976 225.944V233H181.136V224.612H181.976L186.62 231.656V224.612H187.46V233ZM191.906 233.084C191.354 233.084 190.866 232.988 190.442 232.796C190.026 232.604 189.698 232.336 189.458 231.992C189.218 231.648 189.09 231.264 189.074 230.84H189.962C190.002 231.248 190.182 231.608 190.502 231.92C190.822 232.224 191.29 232.376 191.906 232.376C192.474 232.376 192.922 232.232 193.25 231.944C193.586 231.648 193.754 231.276 193.754 230.828C193.754 230.468 193.662 230.18 193.478 229.964C193.294 229.74 193.066 229.576 192.794 229.472C192.522 229.36 192.146 229.24 191.666 229.112C191.106 228.96 190.662 228.812 190.334 228.668C190.006 228.524 189.726 228.3 189.494 227.996C189.262 227.692 189.146 227.28 189.146 226.76C189.146 226.328 189.258 225.944 189.482 225.608C189.706 225.264 190.022 224.996 190.43 224.804C190.838 224.612 191.306 224.516 191.834 224.516C192.61 224.516 193.234 224.708 193.706 225.092C194.186 225.468 194.462 225.956 194.534 226.556H193.622C193.566 226.212 193.378 225.908 193.058 225.644C192.738 225.372 192.306 225.236 191.762 225.236C191.258 225.236 190.838 225.372 190.502 225.644C190.166 225.908 189.998 226.272 189.998 226.736C189.998 227.088 190.09 227.372 190.274 227.588C190.458 227.804 190.686 227.968 190.958 228.08C191.238 228.192 191.614 228.312 192.086 228.44C192.63 228.592 193.07 228.744 193.406 228.896C193.742 229.04 194.026 229.264 194.258 229.568C194.49 229.872 194.606 230.28 194.606 230.792C194.606 231.184 194.502 231.556 194.294 231.908C194.086 232.26 193.778 232.544 193.37 232.76C192.962 232.976 192.474 233.084 191.906 233.084ZM197.034 224.612V229.892C197.034 230.724 197.23 231.34 197.622 231.74C198.022 232.14 198.566 232.34 199.254 232.34C199.942 232.34 200.478 232.144 200.862 231.752C201.254 231.352 201.45 230.732 201.45 229.892V224.612H202.29V229.88C202.29 230.944 202.006 231.744 201.438 232.28C200.878 232.816 200.146 233.084 199.242 233.084C198.338 233.084 197.602 232.816 197.034 232.28C196.474 231.744 196.194 230.944 196.194 229.88V224.612H197.034ZM205.003 232.316H208.015V233H204.163V224.612H205.003V232.316ZM214.122 224.612V225.308H211.794V233H210.954V225.308H208.614V224.612H214.122ZM220.308 231.008H216.492L215.76 233H214.872L217.932 224.72H218.88L221.928 233H221.04L220.308 231.008ZM220.056 230.312L218.4 225.776L216.744 230.312H220.056ZM229.6 233H228.76L224.116 225.944V233H223.276V224.612H224.116L228.76 231.656V224.612H229.6V233ZM236.411 224.612V225.308H234.083V233H233.243V225.308H230.903V224.612H236.411ZM240.281 233.084C239.729 233.084 239.241 232.988 238.817 232.796C238.401 232.604 238.073 232.336 237.833 231.992C237.593 231.648 237.465 231.264 237.449 230.84H238.337C238.377 231.248 238.557 231.608 238.877 231.92C239.197 232.224 239.665 232.376 240.281 232.376C240.849 232.376 241.297 232.232 241.625 231.944C241.961 231.648 242.129 231.276 242.129 230.828C242.129 230.468 242.037 230.18 241.853 229.964C241.669 229.74 241.441 229.576 241.169 229.472C240.897 229.36 240.521 229.24 240.041 229.112C239.481 228.96 239.037 228.812 238.709 228.668C238.381 228.524 238.101 228.3 237.869 227.996C237.637 227.692 237.521 227.28 237.521 226.76C237.521 226.328 237.633 225.944 237.857 225.608C238.081 225.264 238.397 224.996 238.805 224.804C239.213 224.612 239.681 224.516 240.209 224.516C240.985 224.516 241.609 224.708 242.081 225.092C242.561 225.468 242.837 225.956 242.909 226.556H241.997C241.941 226.212 241.753 225.908 241.433 225.644C241.113 225.372 240.681 225.236 240.137 225.236C239.633 225.236 239.213 225.372 238.877 225.644C238.541 225.908 238.373 226.272 238.373 226.736C238.373 227.088 238.465 227.372 238.649 227.588C238.833 227.804 239.061 227.968 239.333 228.08C239.613 228.192 239.989 228.312 240.461 228.44C241.005 228.592 241.445 228.744 241.781 228.896C242.117 229.04 242.401 229.264 242.633 229.568C242.865 229.872 242.981 230.28 242.981 230.792C242.981 231.184 242.877 231.556 242.669 231.908C242.461 232.26 242.153 232.544 241.745 232.76C241.337 232.976 240.849 233.084 240.281 233.084Z" fill="black"/>
<line x1="91.5" y1="53.9977" x2="91.5" y2="160.002" stroke="black" stroke-width="6"/>
<line x1="174" y1="54" x2="174" y2="160.005" stroke="black" stroke-width="6"/>
<line x1="92.3492" y1="56.1342" x2="134.628" y2="109.365" stroke="black" stroke-width="6"/>
<line x1="176.978" y1="157" x2="109" y2="157" stroke="black" stroke-width="6"/>
<line x1="174.06" y1="55.8399" x2="132.37" y2="109.533" stroke="black" stroke-width="6"/>
</svg>
