<svg width="416" height="1192" viewBox="0 0 416 1192" fill="none" xmlns="http://www.w3.org/2000/svg">
<path d="M68.63 148.28C66.18 148.28 63.9633 147.743 61.98 146.67C60.02 145.573 58.48 144.08 57.36 142.19C56.24 140.277 55.68 138.13 55.68 135.75C55.68 133.37 56.24 131.235 57.36 129.345C58.48 127.432 60.0317 125.938 62.015 124.865C63.9983 123.768 66.215 123.22 68.665 123.22C70.5783 123.22 72.3283 123.547 73.915 124.2C75.5017 124.83 76.855 125.775 77.975 127.035L75.7 129.24C73.8567 127.303 71.5583 126.335 68.805 126.335C66.985 126.335 65.34 126.743 63.87 127.56C62.4 128.377 61.245 129.508 60.405 130.955C59.5883 132.378 59.18 133.977 59.18 135.75C59.18 137.523 59.5883 139.133 60.405 140.58C61.245 142.003 62.4 143.123 63.87 143.94C65.34 144.757 66.985 145.165 68.805 145.165C71.535 145.165 73.8333 144.185 75.7 142.225L77.975 144.43C76.855 145.69 75.49 146.647 73.88 147.3C72.2933 147.953 70.5433 148.28 68.63 148.28ZM89.6368 148.21C87.7935 148.21 86.1368 147.802 84.6668 146.985C83.1968 146.168 82.0418 145.048 81.2018 143.625C80.3852 142.178 79.9768 140.545 79.9768 138.725C79.9768 136.905 80.3852 135.283 81.2018 133.86C82.0418 132.413 83.1968 131.293 84.6668 130.5C86.1368 129.683 87.7935 129.275 89.6368 129.275C91.4802 129.275 93.1252 129.683 94.5718 130.5C96.0418 131.293 97.1852 132.413 98.0018 133.86C98.8418 135.283 99.2618 136.905 99.2618 138.725C99.2618 140.545 98.8418 142.178 98.0018 143.625C97.1852 145.048 96.0418 146.168 94.5718 146.985C93.1252 147.802 91.4802 148.21 89.6368 148.21ZM89.6368 145.27C90.8268 145.27 91.8885 145.002 92.8218 144.465C93.7785 143.905 94.5252 143.135 95.0618 142.155C95.5985 141.152 95.8668 140.008 95.8668 138.725C95.8668 137.442 95.5985 136.31 95.0618 135.33C94.5252 134.327 93.7785 133.557 92.8218 133.02C91.8885 132.483 90.8268 132.215 89.6368 132.215C88.4468 132.215 87.3735 132.483 86.4168 133.02C85.4835 133.557 84.7368 134.327 84.1768 135.33C83.6402 136.31 83.3718 137.442 83.3718 138.725C83.3718 140.008 83.6402 141.152 84.1768 142.155C84.7368 143.135 85.4835 143.905 86.4168 144.465C87.3735 145.002 88.4468 145.27 89.6368 145.27ZM113.814 129.275C116.17 129.275 118.037 129.963 119.414 131.34C120.814 132.693 121.514 134.688 121.514 137.325V148H118.154V137.71C118.154 135.913 117.722 134.56 116.859 133.65C115.995 132.74 114.759 132.285 113.149 132.285C111.329 132.285 109.894 132.822 108.844 133.895C107.794 134.945 107.269 136.462 107.269 138.445V148H103.909V129.45H107.129V132.25C107.805 131.293 108.715 130.558 109.859 130.045C111.025 129.532 112.344 129.275 113.814 129.275ZM135.919 148.21C134.029 148.21 132.338 147.802 130.844 146.985C129.374 146.168 128.219 145.048 127.379 143.625C126.539 142.178 126.119 140.545 126.119 138.725C126.119 136.905 126.539 135.283 127.379 133.86C128.219 132.413 129.374 131.293 130.844 130.5C132.338 129.683 134.029 129.275 135.919 129.275C137.599 129.275 139.093 129.613 140.399 130.29C141.729 130.967 142.756 131.947 143.479 133.23L140.924 134.875C140.341 133.988 139.618 133.323 138.754 132.88C137.891 132.437 136.934 132.215 135.884 132.215C134.671 132.215 133.574 132.483 132.594 133.02C131.638 133.557 130.879 134.327 130.319 135.33C129.783 136.31 129.514 137.442 129.514 138.725C129.514 140.032 129.783 141.187 130.319 142.19C130.879 143.17 131.638 143.928 132.594 144.465C133.574 145.002 134.671 145.27 135.884 145.27C136.934 145.27 137.891 145.048 138.754 144.605C139.618 144.162 140.341 143.497 140.924 142.61L143.479 144.22C142.756 145.503 141.729 146.495 140.399 147.195C139.093 147.872 137.599 148.21 135.919 148.21ZM164.321 138.83C164.321 139.087 164.298 139.425 164.251 139.845H149.201C149.411 141.478 150.123 142.797 151.336 143.8C152.573 144.78 154.101 145.27 155.921 145.27C158.138 145.27 159.923 144.523 161.276 143.03L163.131 145.2C162.291 146.18 161.241 146.927 159.981 147.44C158.744 147.953 157.356 148.21 155.816 148.21C153.856 148.21 152.118 147.813 150.601 147.02C149.084 146.203 147.906 145.072 147.066 143.625C146.249 142.178 145.841 140.545 145.841 138.725C145.841 136.928 146.238 135.307 147.031 133.86C147.848 132.413 148.956 131.293 150.356 130.5C151.779 129.683 153.378 129.275 155.151 129.275C156.924 129.275 158.499 129.683 159.876 130.5C161.276 131.293 162.361 132.413 163.131 133.86C163.924 135.307 164.321 136.963 164.321 138.83ZM155.151 132.11C153.541 132.11 152.188 132.6 151.091 133.58C150.018 134.56 149.388 135.843 149.201 137.43H161.101C160.914 135.867 160.273 134.595 159.176 133.615C158.103 132.612 156.761 132.11 155.151 132.11ZM178.822 129.275C180.618 129.275 182.228 129.672 183.652 130.465C185.075 131.258 186.183 132.367 186.977 133.79C187.793 135.213 188.202 136.858 188.202 138.725C188.202 140.592 187.793 142.248 186.977 143.695C186.183 145.118 185.075 146.227 183.652 147.02C182.228 147.813 180.618 148.21 178.822 148.21C177.492 148.21 176.267 147.953 175.147 147.44C174.05 146.927 173.117 146.18 172.347 145.2V154.79H168.987V129.45H172.207V132.39C172.953 131.363 173.898 130.593 175.042 130.08C176.185 129.543 177.445 129.275 178.822 129.275ZM178.542 145.27C179.732 145.27 180.793 145.002 181.727 144.465C182.683 143.905 183.43 143.135 183.967 142.155C184.527 141.152 184.807 140.008 184.807 138.725C184.807 137.442 184.527 136.31 183.967 135.33C183.43 134.327 182.683 133.557 181.727 133.02C180.793 132.483 179.732 132.215 178.542 132.215C177.375 132.215 176.313 132.495 175.357 133.055C174.423 133.592 173.677 134.35 173.117 135.33C172.58 136.31 172.312 137.442 172.312 138.725C172.312 140.008 172.58 141.152 173.117 142.155C173.653 143.135 174.4 143.905 175.357 144.465C176.313 145.002 177.375 145.27 178.542 145.27ZM203.274 146.915C202.784 147.335 202.178 147.662 201.454 147.895C200.731 148.105 199.984 148.21 199.214 148.21C197.348 148.21 195.901 147.708 194.874 146.705C193.848 145.702 193.334 144.267 193.334 142.4V132.215H190.184V129.45H193.334V125.39H196.694V129.45H202.014V132.215H196.694V142.26C196.694 143.263 196.939 144.033 197.429 144.57C197.943 145.107 198.666 145.375 199.599 145.375C200.626 145.375 201.501 145.083 202.224 144.5L203.274 146.915ZM217.226 123.5H227.551C230.141 123.5 232.439 124.013 234.446 125.04C236.452 126.067 238.004 127.513 239.101 129.38C240.221 131.223 240.781 133.347 240.781 135.75C240.781 138.153 240.221 140.288 239.101 142.155C238.004 143.998 236.452 145.433 234.446 146.46C232.439 147.487 230.141 148 227.551 148H217.226V123.5ZM227.341 144.955C229.324 144.955 231.062 144.57 232.556 143.8C234.072 143.03 235.239 141.957 236.056 140.58C236.872 139.18 237.281 137.57 237.281 135.75C237.281 133.93 236.872 132.332 236.056 130.955C235.239 129.555 234.072 128.47 232.556 127.7C231.062 126.93 229.324 126.545 227.341 126.545H220.726V144.955H227.341ZM262.417 138.83C262.417 139.087 262.393 139.425 262.347 139.845H247.297C247.507 141.478 248.218 142.797 249.432 143.8C250.668 144.78 252.197 145.27 254.017 145.27C256.233 145.27 258.018 144.523 259.372 143.03L261.227 145.2C260.387 146.18 259.337 146.927 258.077 147.44C256.84 147.953 255.452 148.21 253.912 148.21C251.952 148.21 250.213 147.813 248.697 147.02C247.18 146.203 246.002 145.072 245.162 143.625C244.345 142.178 243.937 140.545 243.937 138.725C243.937 136.928 244.333 135.307 245.127 133.86C245.943 132.413 247.052 131.293 248.452 130.5C249.875 129.683 251.473 129.275 253.247 129.275C255.02 129.275 256.595 129.683 257.972 130.5C259.372 131.293 260.457 132.413 261.227 133.86C262.02 135.307 262.417 136.963 262.417 138.83ZM253.247 132.11C251.637 132.11 250.283 132.6 249.187 133.58C248.113 134.56 247.483 135.843 247.297 137.43H259.197C259.01 135.867 258.368 134.595 257.272 133.615C256.198 132.612 254.857 132.11 253.247 132.11ZM272.402 148.21C270.886 148.21 269.427 148.012 268.027 147.615C266.627 147.195 265.531 146.67 264.737 146.04L266.137 143.38C266.954 143.963 267.946 144.43 269.112 144.78C270.279 145.13 271.457 145.305 272.647 145.305C275.587 145.305 277.057 144.465 277.057 142.785C277.057 142.225 276.859 141.782 276.462 141.455C276.066 141.128 275.564 140.895 274.957 140.755C274.374 140.592 273.534 140.417 272.437 140.23C270.944 139.997 269.719 139.728 268.762 139.425C267.829 139.122 267.024 138.608 266.347 137.885C265.671 137.162 265.332 136.147 265.332 134.84C265.332 133.16 266.032 131.818 267.432 130.815C268.832 129.788 270.711 129.275 273.067 129.275C274.304 129.275 275.541 129.427 276.777 129.73C278.014 130.033 279.029 130.442 279.822 130.955L278.387 133.615C276.871 132.635 275.086 132.145 273.032 132.145C271.609 132.145 270.524 132.378 269.777 132.845C269.031 133.312 268.657 133.93 268.657 134.7C268.657 135.307 268.867 135.785 269.287 136.135C269.707 136.485 270.221 136.742 270.827 136.905C271.457 137.068 272.332 137.255 273.452 137.465C274.946 137.722 276.147 138.002 277.057 138.305C277.991 138.585 278.784 139.075 279.437 139.775C280.091 140.475 280.417 141.455 280.417 142.715C280.417 144.395 279.694 145.737 278.247 146.74C276.824 147.72 274.876 148.21 272.402 148.21ZM284.617 129.45H287.977V148H284.617V129.45ZM286.297 125.88C285.643 125.88 285.095 125.67 284.652 125.25C284.232 124.83 284.022 124.317 284.022 123.71C284.022 123.103 284.232 122.59 284.652 122.17C285.095 121.727 285.643 121.505 286.297 121.505C286.95 121.505 287.487 121.715 287.907 122.135C288.35 122.532 288.572 123.033 288.572 123.64C288.572 124.27 288.35 124.807 287.907 125.25C287.487 125.67 286.95 125.88 286.297 125.88ZM312.137 129.45V145.48C312.137 148.723 311.332 151.115 309.722 152.655C308.112 154.218 305.709 155 302.512 155C300.762 155 299.094 154.755 297.507 154.265C295.92 153.798 294.637 153.122 293.657 152.235L295.267 149.645C296.13 150.392 297.192 150.975 298.452 151.395C299.735 151.838 301.054 152.06 302.407 152.06C304.577 152.06 306.175 151.547 307.202 150.52C308.252 149.493 308.777 147.93 308.777 145.83V144.36C307.984 145.317 307.004 146.04 305.837 146.53C304.694 146.997 303.445 147.23 302.092 147.23C300.319 147.23 298.709 146.857 297.262 146.11C295.839 145.34 294.719 144.278 293.902 142.925C293.085 141.548 292.677 139.985 292.677 138.235C292.677 136.485 293.085 134.933 293.902 133.58C294.719 132.203 295.839 131.142 297.262 130.395C298.709 129.648 300.319 129.275 302.092 129.275C303.492 129.275 304.787 129.532 305.977 130.045C307.19 130.558 308.182 131.317 308.952 132.32V129.45H312.137ZM302.477 144.29C303.69 144.29 304.775 144.033 305.732 143.52C306.712 143.007 307.47 142.295 308.007 141.385C308.567 140.452 308.847 139.402 308.847 138.235C308.847 136.438 308.252 134.992 307.062 133.895C305.872 132.775 304.344 132.215 302.477 132.215C300.587 132.215 299.047 132.775 297.857 133.895C296.667 134.992 296.072 136.438 296.072 138.235C296.072 139.402 296.34 140.452 296.877 141.385C297.437 142.295 298.195 143.007 299.152 143.52C300.132 144.033 301.24 144.29 302.477 144.29ZM328.462 129.275C330.819 129.275 332.685 129.963 334.062 131.34C335.462 132.693 336.162 134.688 336.162 137.325V148H332.802V137.71C332.802 135.913 332.37 134.56 331.507 133.65C330.644 132.74 329.407 132.285 327.797 132.285C325.977 132.285 324.542 132.822 323.492 133.895C322.442 134.945 321.917 136.462 321.917 138.445V148H318.557V129.45H321.777V132.25C322.454 131.293 323.364 130.558 324.507 130.045C325.674 129.532 326.992 129.275 328.462 129.275Z" fill="black"/>
<path d="M76.39 378L76.355 360.15L67.5 375.025H65.89L57.035 360.255V378H53.675V353.5H56.545L66.765 370.72L76.845 353.5H79.715L79.75 378H76.39ZM93.3677 359.275C95.9344 359.275 97.8944 359.905 99.2477 361.165C100.624 362.425 101.313 364.303 101.313 366.8V378H98.1277V375.55C97.5677 376.413 96.7627 377.078 95.7127 377.545C94.6861 377.988 93.4611 378.21 92.0377 378.21C89.9611 378.21 88.2927 377.708 87.0327 376.705C85.7961 375.702 85.1777 374.383 85.1777 372.75C85.1777 371.117 85.7727 369.81 86.9627 368.83C88.1527 367.827 90.0427 367.325 92.6327 367.325H97.9527V366.66C97.9527 365.213 97.5327 364.105 96.6927 363.335C95.8527 362.565 94.6161 362.18 92.9827 362.18C91.8861 362.18 90.8127 362.367 89.7627 362.74C88.7127 363.09 87.8261 363.568 87.1027 364.175L85.7027 361.655C86.6594 360.885 87.8027 360.302 89.1327 359.905C90.4627 359.485 91.8744 359.275 93.3677 359.275ZM92.5977 375.62C93.8811 375.62 94.9894 375.34 95.9227 374.78C96.8561 374.197 97.5327 373.38 97.9527 372.33V369.74H92.7727C89.9261 369.74 88.5027 370.697 88.5027 372.61C88.5027 373.543 88.8644 374.278 89.5877 374.815C90.3111 375.352 91.3144 375.62 92.5977 375.62ZM112.851 378.21C111.334 378.21 109.876 378.012 108.476 377.615C107.076 377.195 105.979 376.67 105.186 376.04L106.586 373.38C107.402 373.963 108.394 374.43 109.561 374.78C110.727 375.13 111.906 375.305 113.096 375.305C116.036 375.305 117.506 374.465 117.506 372.785C117.506 372.225 117.307 371.782 116.911 371.455C116.514 371.128 116.012 370.895 115.406 370.755C114.822 370.592 113.982 370.417 112.886 370.23C111.392 369.997 110.167 369.728 109.211 369.425C108.277 369.122 107.472 368.608 106.796 367.885C106.119 367.162 105.781 366.147 105.781 364.84C105.781 363.16 106.481 361.818 107.881 360.815C109.281 359.788 111.159 359.275 113.516 359.275C114.752 359.275 115.989 359.427 117.226 359.73C118.462 360.033 119.477 360.442 120.271 360.955L118.836 363.615C117.319 362.635 115.534 362.145 113.481 362.145C112.057 362.145 110.972 362.378 110.226 362.845C109.479 363.312 109.106 363.93 109.106 364.7C109.106 365.307 109.316 365.785 109.736 366.135C110.156 366.485 110.669 366.742 111.276 366.905C111.906 367.068 112.781 367.255 113.901 367.465C115.394 367.722 116.596 368.002 117.506 368.305C118.439 368.585 119.232 369.075 119.886 369.775C120.539 370.475 120.866 371.455 120.866 372.715C120.866 374.395 120.142 375.737 118.696 376.74C117.272 377.72 115.324 378.21 112.851 378.21ZM135.495 376.915C135.005 377.335 134.398 377.662 133.675 377.895C132.952 378.105 132.205 378.21 131.435 378.21C129.568 378.21 128.122 377.708 127.095 376.705C126.068 375.702 125.555 374.267 125.555 372.4V362.215H122.405V359.45H125.555V355.39H128.915V359.45H134.235V362.215H128.915V372.26C128.915 373.263 129.16 374.033 129.65 374.57C130.163 375.107 130.887 375.375 131.82 375.375C132.847 375.375 133.722 375.083 134.445 374.5L135.495 376.915ZM155.707 368.83C155.707 369.087 155.684 369.425 155.637 369.845H140.587C140.797 371.478 141.509 372.797 142.722 373.8C143.959 374.78 145.487 375.27 147.307 375.27C149.524 375.27 151.309 374.523 152.662 373.03L154.517 375.2C153.677 376.18 152.627 376.927 151.367 377.44C150.13 377.953 148.742 378.21 147.202 378.21C145.242 378.21 143.504 377.813 141.987 377.02C140.47 376.203 139.292 375.072 138.452 373.625C137.635 372.178 137.227 370.545 137.227 368.725C137.227 366.928 137.624 365.307 138.417 363.86C139.234 362.413 140.342 361.293 141.742 360.5C143.165 359.683 144.764 359.275 146.537 359.275C148.31 359.275 149.885 359.683 151.262 360.5C152.662 361.293 153.747 362.413 154.517 363.86C155.31 365.307 155.707 366.963 155.707 368.83ZM146.537 362.11C144.927 362.11 143.574 362.6 142.477 363.58C141.404 364.56 140.774 365.843 140.587 367.43H152.487C152.3 365.867 151.659 364.595 150.562 363.615C149.489 362.612 148.147 362.11 146.537 362.11ZM163.593 362.565C164.176 361.492 165.039 360.675 166.182 360.115C167.326 359.555 168.714 359.275 170.348 359.275V362.53C170.161 362.507 169.904 362.495 169.578 362.495C167.758 362.495 166.323 363.043 165.273 364.14C164.246 365.213 163.733 366.753 163.733 368.76V378H160.373V359.45H163.593V362.565ZM194.172 353.5C197.346 353.5 199.842 354.258 201.662 355.775C203.482 357.292 204.392 359.38 204.392 362.04C204.392 364.7 203.482 366.788 201.662 368.305C199.842 369.822 197.346 370.58 194.172 370.58H188.117V378H184.617V353.5H194.172ZM194.067 367.535C196.284 367.535 197.976 367.068 199.142 366.135C200.309 365.178 200.892 363.813 200.892 362.04C200.892 360.267 200.309 358.913 199.142 357.98C197.976 357.023 196.284 356.545 194.067 356.545H188.117V367.535H194.067ZM209.386 352.03H212.746V378H209.386V352.03ZM225.917 359.275C228.483 359.275 230.443 359.905 231.797 361.165C233.173 362.425 233.862 364.303 233.862 366.8V378H230.677V375.55C230.117 376.413 229.312 377.078 228.262 377.545C227.235 377.988 226.01 378.21 224.587 378.21C222.51 378.21 220.842 377.708 219.582 376.705C218.345 375.702 217.727 374.383 217.727 372.75C217.727 371.117 218.322 369.81 219.512 368.83C220.702 367.827 222.592 367.325 225.182 367.325H230.502V366.66C230.502 365.213 230.082 364.105 229.242 363.335C228.402 362.565 227.165 362.18 225.532 362.18C224.435 362.18 223.362 362.367 222.312 362.74C221.262 363.09 220.375 363.568 219.652 364.175L218.252 361.655C219.208 360.885 220.352 360.302 221.682 359.905C223.012 359.485 224.423 359.275 225.917 359.275ZM225.147 375.62C226.43 375.62 227.538 375.34 228.472 374.78C229.405 374.197 230.082 373.38 230.502 372.33V369.74H225.322C222.475 369.74 221.052 370.697 221.052 372.61C221.052 373.543 221.413 374.278 222.137 374.815C222.86 375.352 223.863 375.62 225.147 375.62ZM249.985 359.275C252.341 359.275 254.208 359.963 255.585 361.34C256.985 362.693 257.685 364.688 257.685 367.325V378H254.325V367.71C254.325 365.913 253.893 364.56 253.03 363.65C252.166 362.74 250.93 362.285 249.32 362.285C247.5 362.285 246.065 362.822 245.015 363.895C243.965 364.945 243.44 366.462 243.44 368.445V378H240.08V359.45H243.3V362.25C243.976 361.293 244.886 360.558 246.03 360.045C247.196 359.532 248.515 359.275 249.985 359.275ZM273.808 359.275C276.164 359.275 278.031 359.963 279.408 361.34C280.808 362.693 281.508 364.688 281.508 367.325V378H278.148V367.71C278.148 365.913 277.716 364.56 276.853 363.65C275.989 362.74 274.753 362.285 273.143 362.285C271.323 362.285 269.888 362.822 268.838 363.895C267.788 364.945 267.263 366.462 267.263 368.445V378H263.903V359.45H267.123V362.25C267.799 361.293 268.709 360.558 269.853 360.045C271.019 359.532 272.338 359.275 273.808 359.275ZM287.726 359.45H291.086V378H287.726V359.45ZM289.406 355.88C288.753 355.88 288.204 355.67 287.761 355.25C287.341 354.83 287.131 354.317 287.131 353.71C287.131 353.103 287.341 352.59 287.761 352.17C288.204 351.727 288.753 351.505 289.406 351.505C290.059 351.505 290.596 351.715 291.016 352.135C291.459 352.532 291.681 353.033 291.681 353.64C291.681 354.27 291.459 354.807 291.016 355.25C290.596 355.67 290.059 355.88 289.406 355.88ZM307.406 359.275C309.763 359.275 311.63 359.963 313.006 361.34C314.406 362.693 315.106 364.688 315.106 367.325V378H311.746V367.71C311.746 365.913 311.315 364.56 310.451 363.65C309.588 362.74 308.351 362.285 306.741 362.285C304.921 362.285 303.486 362.822 302.436 363.895C301.386 364.945 300.861 366.462 300.861 368.445V378H297.501V359.45H300.721V362.25C301.398 361.293 302.308 360.558 303.451 360.045C304.618 359.532 305.936 359.275 307.406 359.275ZM339.172 359.45V375.48C339.172 378.723 338.367 381.115 336.757 382.655C335.147 384.218 332.744 385 329.547 385C327.797 385 326.129 384.755 324.542 384.265C322.956 383.798 321.672 383.122 320.692 382.235L322.302 379.645C323.166 380.392 324.227 380.975 325.487 381.395C326.771 381.838 328.089 382.06 329.442 382.06C331.612 382.06 333.211 381.547 334.237 380.52C335.287 379.493 335.812 377.93 335.812 375.83V374.36C335.019 375.317 334.039 376.04 332.872 376.53C331.729 376.997 330.481 377.23 329.127 377.23C327.354 377.23 325.744 376.857 324.297 376.11C322.874 375.34 321.754 374.278 320.937 372.925C320.121 371.548 319.712 369.985 319.712 368.235C319.712 366.485 320.121 364.933 320.937 363.58C321.754 362.203 322.874 361.142 324.297 360.395C325.744 359.648 327.354 359.275 329.127 359.275C330.527 359.275 331.822 359.532 333.012 360.045C334.226 360.558 335.217 361.317 335.987 362.32V359.45H339.172ZM329.512 374.29C330.726 374.29 331.811 374.033 332.767 373.52C333.747 373.007 334.506 372.295 335.042 371.385C335.602 370.452 335.882 369.402 335.882 368.235C335.882 366.438 335.287 364.992 334.097 363.895C332.907 362.775 331.379 362.215 329.512 362.215C327.622 362.215 326.082 362.775 324.892 363.895C323.702 364.992 323.107 366.438 323.107 368.235C323.107 369.402 323.376 370.452 323.912 371.385C324.472 372.295 325.231 373.007 326.187 373.52C327.167 374.033 328.276 374.29 329.512 374.29Z" fill="black"/>
<path d="M54.16 555.295C55.5833 555.692 56.7033 556.415 57.52 557.465C58.3367 558.492 58.745 559.798 58.745 561.385C58.745 563.508 57.94 565.142 56.33 566.285C54.7433 567.428 52.4217 568 49.365 568H37.675V543.5H48.665C51.465 543.5 53.6233 544.06 55.14 545.18C56.68 546.3 57.45 547.852 57.45 549.835C57.45 551.118 57.1467 552.227 56.54 553.16C55.9567 554.093 55.1633 554.805 54.16 555.295ZM41.175 546.335V554.175H48.35C50.1467 554.175 51.5233 553.848 52.48 553.195C53.46 552.518 53.95 551.538 53.95 550.255C53.95 548.972 53.46 548.003 52.48 547.35C51.5233 546.673 50.1467 546.335 48.35 546.335H41.175ZM49.225 565.165C51.2083 565.165 52.7017 564.838 53.705 564.185C54.7083 563.532 55.21 562.505 55.21 561.105C55.21 558.375 53.215 557.01 49.225 557.01H41.175V565.165H49.225ZM70.4293 549.275C72.9959 549.275 74.9559 549.905 76.3093 551.165C77.6859 552.425 78.3743 554.303 78.3743 556.8V568H75.1893V565.55C74.6293 566.413 73.8243 567.078 72.7743 567.545C71.7476 567.988 70.5226 568.21 69.0993 568.21C67.0226 568.21 65.3543 567.708 64.0943 566.705C62.8576 565.702 62.2393 564.383 62.2393 562.75C62.2393 561.117 62.8343 559.81 64.0243 558.83C65.2143 557.827 67.1043 557.325 69.6943 557.325H75.0143V556.66C75.0143 555.213 74.5943 554.105 73.7543 553.335C72.9143 552.565 71.6776 552.18 70.0443 552.18C68.9476 552.18 67.8743 552.367 66.8243 552.74C65.7743 553.09 64.8876 553.568 64.1643 554.175L62.7643 551.655C63.7209 550.885 64.8643 550.302 66.1943 549.905C67.5243 549.485 68.9359 549.275 70.4293 549.275ZM69.6593 565.62C70.9426 565.62 72.0509 565.34 72.9843 564.78C73.9176 564.197 74.5943 563.38 75.0143 562.33V559.74H69.8343C66.9876 559.74 65.5643 560.697 65.5643 562.61C65.5643 563.543 65.9259 564.278 66.6493 564.815C67.3726 565.352 68.3759 565.62 69.6593 565.62ZM89.9122 568.21C88.3956 568.21 86.9372 568.012 85.5372 567.615C84.1372 567.195 83.0406 566.67 82.2472 566.04L83.6472 563.38C84.4639 563.963 85.4556 564.43 86.6222 564.78C87.7889 565.13 88.9672 565.305 90.1572 565.305C93.0972 565.305 94.5672 564.465 94.5672 562.785C94.5672 562.225 94.3689 561.782 93.9722 561.455C93.5756 561.128 93.0739 560.895 92.4672 560.755C91.8839 560.592 91.0439 560.417 89.9472 560.23C88.4539 559.997 87.2289 559.728 86.2722 559.425C85.3389 559.122 84.5339 558.608 83.8572 557.885C83.1806 557.162 82.8422 556.147 82.8422 554.84C82.8422 553.16 83.5422 551.818 84.9422 550.815C86.3422 549.788 88.2206 549.275 90.5772 549.275C91.8139 549.275 93.0506 549.427 94.2872 549.73C95.5239 550.033 96.5389 550.442 97.3322 550.955L95.8972 553.615C94.3806 552.635 92.5956 552.145 90.5422 552.145C89.1189 552.145 88.0339 552.378 87.2872 552.845C86.5406 553.312 86.1672 553.93 86.1672 554.7C86.1672 555.307 86.3772 555.785 86.7972 556.135C87.2172 556.485 87.7306 556.742 88.3372 556.905C88.9672 557.068 89.8422 557.255 90.9622 557.465C92.4556 557.722 93.6572 558.002 94.5672 558.305C95.5006 558.585 96.2939 559.075 96.9472 559.775C97.6006 560.475 97.9272 561.455 97.9272 562.715C97.9272 564.395 97.2039 565.737 95.7572 566.74C94.3339 567.72 92.3856 568.21 89.9122 568.21ZM102.126 549.45H105.486V568H102.126V549.45ZM103.806 545.88C103.153 545.88 102.605 545.67 102.161 545.25C101.741 544.83 101.531 544.317 101.531 543.71C101.531 543.103 101.741 542.59 102.161 542.17C102.605 541.727 103.153 541.505 103.806 541.505C104.46 541.505 104.996 541.715 105.416 542.135C105.86 542.532 106.081 543.033 106.081 543.64C106.081 544.27 105.86 544.807 105.416 545.25C104.996 545.67 104.46 545.88 103.806 545.88ZM119.987 568.21C118.097 568.21 116.405 567.802 114.912 566.985C113.442 566.168 112.287 565.048 111.447 563.625C110.607 562.178 110.187 560.545 110.187 558.725C110.187 556.905 110.607 555.283 111.447 553.86C112.287 552.413 113.442 551.293 114.912 550.5C116.405 549.683 118.097 549.275 119.987 549.275C121.667 549.275 123.16 549.613 124.467 550.29C125.797 550.967 126.823 551.947 127.547 553.23L124.992 554.875C124.408 553.988 123.685 553.323 122.822 552.88C121.958 552.437 121.002 552.215 119.952 552.215C118.738 552.215 117.642 552.483 116.662 553.02C115.705 553.557 114.947 554.327 114.387 555.33C113.85 556.31 113.582 557.442 113.582 558.725C113.582 560.032 113.85 561.187 114.387 562.19C114.947 563.17 115.705 563.928 116.662 564.465C117.642 565.002 118.738 565.27 119.952 565.27C121.002 565.27 121.958 565.048 122.822 564.605C123.685 564.162 124.408 563.497 124.992 562.61L127.547 564.22C126.823 565.503 125.797 566.495 124.467 567.195C123.16 567.872 121.667 568.21 119.987 568.21ZM159.566 564.955V568H141.786V543.5H159.076V546.545H145.286V554.07H157.571V557.045H145.286V564.955H159.566ZM174.649 549.275C177.005 549.275 178.872 549.963 180.249 551.34C181.649 552.693 182.349 554.688 182.349 557.325V568H178.989V557.71C178.989 555.913 178.557 554.56 177.694 553.65C176.83 552.74 175.594 552.285 173.984 552.285C172.164 552.285 170.729 552.822 169.679 553.895C168.629 554.945 168.104 556.462 168.104 558.445V568H164.744V549.45H167.964V552.25C168.64 551.293 169.55 550.558 170.694 550.045C171.86 549.532 173.179 549.275 174.649 549.275ZM206.414 549.45V565.48C206.414 568.723 205.609 571.115 203.999 572.655C202.389 574.218 199.986 575 196.789 575C195.039 575 193.371 574.755 191.784 574.265C190.198 573.798 188.914 573.122 187.934 572.235L189.544 569.645C190.408 570.392 191.469 570.975 192.729 571.395C194.013 571.838 195.331 572.06 196.684 572.06C198.854 572.06 200.453 571.547 201.479 570.52C202.529 569.493 203.054 567.93 203.054 565.83V564.36C202.261 565.317 201.281 566.04 200.114 566.53C198.971 566.997 197.723 567.23 196.369 567.23C194.596 567.23 192.986 566.857 191.539 566.11C190.116 565.34 188.996 564.278 188.179 562.925C187.363 561.548 186.954 559.985 186.954 558.235C186.954 556.485 187.363 554.933 188.179 553.58C188.996 552.203 190.116 551.142 191.539 550.395C192.986 549.648 194.596 549.275 196.369 549.275C197.769 549.275 199.064 549.532 200.254 550.045C201.468 550.558 202.459 551.317 203.229 552.32V549.45H206.414ZM196.754 564.29C197.968 564.29 199.053 564.033 200.009 563.52C200.989 563.007 201.748 562.295 202.284 561.385C202.844 560.452 203.124 559.402 203.124 558.235C203.124 556.438 202.529 554.992 201.339 553.895C200.149 552.775 198.621 552.215 196.754 552.215C194.864 552.215 193.324 552.775 192.134 553.895C190.944 554.992 190.349 556.438 190.349 558.235C190.349 559.402 190.618 560.452 191.154 561.385C191.714 562.295 192.473 563.007 193.429 563.52C194.409 564.033 195.518 564.29 196.754 564.29ZM212.834 549.45H216.194V568H212.834V549.45ZM214.514 545.88C213.861 545.88 213.313 545.67 212.869 545.25C212.449 544.83 212.239 544.317 212.239 543.71C212.239 543.103 212.449 542.59 212.869 542.17C213.313 541.727 213.861 541.505 214.514 541.505C215.168 541.505 215.704 541.715 216.124 542.135C216.568 542.532 216.789 543.033 216.789 543.64C216.789 544.27 216.568 544.807 216.124 545.25C215.704 545.67 215.168 545.88 214.514 545.88ZM232.515 549.275C234.871 549.275 236.738 549.963 238.115 551.34C239.515 552.693 240.215 554.688 240.215 557.325V568H236.855V557.71C236.855 555.913 236.423 554.56 235.56 553.65C234.696 552.74 233.46 552.285 231.85 552.285C230.03 552.285 228.595 552.822 227.545 553.895C226.495 554.945 225.97 556.462 225.97 558.445V568H222.61V549.45H225.83V552.25C226.506 551.293 227.416 550.558 228.56 550.045C229.726 549.532 231.045 549.275 232.515 549.275ZM263.301 558.83C263.301 559.087 263.277 559.425 263.231 559.845H248.181C248.391 561.478 249.102 562.797 250.316 563.8C251.552 564.78 253.081 565.27 254.901 565.27C257.117 565.27 258.902 564.523 260.256 563.03L262.111 565.2C261.271 566.18 260.221 566.927 258.961 567.44C257.724 567.953 256.336 568.21 254.796 568.21C252.836 568.21 251.097 567.813 249.581 567.02C248.064 566.203 246.886 565.072 246.046 563.625C245.229 562.178 244.821 560.545 244.821 558.725C244.821 556.928 245.217 555.307 246.011 553.86C246.827 552.413 247.936 551.293 249.336 550.5C250.759 549.683 252.357 549.275 254.131 549.275C255.904 549.275 257.479 549.683 258.856 550.5C260.256 551.293 261.341 552.413 262.111 553.86C262.904 555.307 263.301 556.963 263.301 558.83ZM254.131 552.11C252.521 552.11 251.167 552.6 250.071 553.58C248.997 554.56 248.367 555.843 248.181 557.43H260.081C259.894 555.867 259.252 554.595 258.156 553.615C257.082 552.612 255.741 552.11 254.131 552.11ZM284.731 558.83C284.731 559.087 284.708 559.425 284.661 559.845H269.611C269.821 561.478 270.533 562.797 271.746 563.8C272.983 564.78 274.511 565.27 276.331 565.27C278.548 565.27 280.333 564.523 281.686 563.03L283.541 565.2C282.701 566.18 281.651 566.927 280.391 567.44C279.155 567.953 277.766 568.21 276.226 568.21C274.266 568.21 272.528 567.813 271.011 567.02C269.495 566.203 268.316 565.072 267.476 563.625C266.66 562.178 266.251 560.545 266.251 558.725C266.251 556.928 266.648 555.307 267.441 553.86C268.258 552.413 269.366 551.293 270.766 550.5C272.19 549.683 273.788 549.275 275.561 549.275C277.335 549.275 278.91 549.683 280.286 550.5C281.686 551.293 282.771 552.413 283.541 553.86C284.335 555.307 284.731 556.963 284.731 558.83ZM275.561 552.11C273.951 552.11 272.598 552.6 271.501 553.58C270.428 554.56 269.798 555.843 269.611 557.43H281.511C281.325 555.867 280.683 554.595 279.586 553.615C278.513 552.612 277.171 552.11 275.561 552.11ZM292.617 552.565C293.2 551.492 294.064 550.675 295.207 550.115C296.35 549.555 297.739 549.275 299.372 549.275V552.53C299.185 552.507 298.929 552.495 298.602 552.495C296.782 552.495 295.347 553.043 294.297 554.14C293.27 555.213 292.757 556.753 292.757 558.76V568H289.397V549.45H292.617V552.565ZM303.513 549.45H306.873V568H303.513V549.45ZM305.193 545.88C304.54 545.88 303.991 545.67 303.548 545.25C303.128 544.83 302.918 544.317 302.918 543.71C302.918 543.103 303.128 542.59 303.548 542.17C303.991 541.727 304.54 541.505 305.193 541.505C305.846 541.505 306.383 541.715 306.803 542.135C307.246 542.532 307.468 543.033 307.468 543.64C307.468 544.27 307.246 544.807 306.803 545.25C306.383 545.67 305.846 545.88 305.193 545.88ZM323.194 549.275C325.55 549.275 327.417 549.963 328.794 551.34C330.194 552.693 330.894 554.688 330.894 557.325V568H327.534V557.71C327.534 555.913 327.102 554.56 326.239 553.65C325.375 552.74 324.139 552.285 322.529 552.285C320.709 552.285 319.274 552.822 318.224 553.895C317.174 554.945 316.649 556.462 316.649 558.445V568H313.289V549.45H316.509V552.25C317.185 551.293 318.095 550.558 319.239 550.045C320.405 549.532 321.724 549.275 323.194 549.275ZM354.959 549.45V565.48C354.959 568.723 354.154 571.115 352.544 572.655C350.934 574.218 348.531 575 345.334 575C343.584 575 341.916 574.755 340.329 574.265C338.743 573.798 337.459 573.122 336.479 572.235L338.089 569.645C338.953 570.392 340.014 570.975 341.274 571.395C342.558 571.838 343.876 572.06 345.229 572.06C347.399 572.06 348.998 571.547 350.024 570.52C351.074 569.493 351.599 567.93 351.599 565.83V564.36C350.806 565.317 349.826 566.04 348.659 566.53C347.516 566.997 346.268 567.23 344.914 567.23C343.141 567.23 341.531 566.857 340.084 566.11C338.661 565.34 337.541 564.278 336.724 562.925C335.908 561.548 335.499 559.985 335.499 558.235C335.499 556.485 335.908 554.933 336.724 553.58C337.541 552.203 338.661 551.142 340.084 550.395C341.531 549.648 343.141 549.275 344.914 549.275C346.314 549.275 347.609 549.532 348.799 550.045C350.013 550.558 351.004 551.317 351.774 552.32V549.45H354.959ZM345.299 564.29C346.513 564.29 347.598 564.033 348.554 563.52C349.534 563.007 350.293 562.295 350.829 561.385C351.389 560.452 351.669 559.402 351.669 558.235C351.669 556.438 351.074 554.992 349.884 553.895C348.694 552.775 347.166 552.215 345.299 552.215C343.409 552.215 341.869 552.775 340.679 553.895C339.489 554.992 338.894 556.438 338.894 558.235C338.894 559.402 339.163 560.452 339.699 561.385C340.259 562.295 341.018 563.007 341.974 563.52C342.954 564.033 344.063 564.29 345.299 564.29Z" fill="black"/>
<path d="M9.675 737.5H20C22.59 737.5 24.8883 738.013 26.895 739.04C28.9017 740.067 30.4533 741.513 31.55 743.38C32.67 745.223 33.23 747.347 33.23 749.75C33.23 752.153 32.67 754.288 31.55 756.155C30.4533 757.998 28.9017 759.433 26.895 760.46C24.8883 761.487 22.59 762 20 762H9.675V737.5ZM19.79 758.955C21.7733 758.955 23.5117 758.57 25.005 757.8C26.5217 757.03 27.6883 755.957 28.505 754.58C29.3217 753.18 29.73 751.57 29.73 749.75C29.73 747.93 29.3217 746.332 28.505 744.955C27.6883 743.555 26.5217 742.47 25.005 741.7C23.5117 740.93 21.7733 740.545 19.79 740.545H13.175V758.955H19.79ZM54.866 752.83C54.866 753.087 54.8427 753.425 54.796 753.845H39.746C39.956 755.478 40.6677 756.797 41.881 757.8C43.1177 758.78 44.646 759.27 46.466 759.27C48.6827 759.27 50.4677 758.523 51.821 757.03L53.676 759.2C52.836 760.18 51.786 760.927 50.526 761.44C49.2893 761.953 47.901 762.21 46.361 762.21C44.401 762.21 42.6627 761.813 41.146 761.02C39.6293 760.203 38.451 759.072 37.611 757.625C36.7943 756.178 36.386 754.545 36.386 752.725C36.386 750.928 36.7827 749.307 37.576 747.86C38.3927 746.413 39.501 745.293 40.901 744.5C42.3243 743.683 43.9227 743.275 45.696 743.275C47.4693 743.275 49.0443 743.683 50.421 744.5C51.821 745.293 52.906 746.413 53.676 747.86C54.4694 749.307 54.866 750.963 54.866 752.83ZM45.696 746.11C44.086 746.11 42.7327 746.6 41.636 747.58C40.5627 748.56 39.9327 749.843 39.746 751.43H51.646C51.4593 749.867 50.8177 748.595 49.721 747.615C48.6477 746.612 47.306 746.11 45.696 746.11ZM69.9617 760.915C69.4717 761.335 68.865 761.662 68.1417 761.895C67.4183 762.105 66.6717 762.21 65.9017 762.21C64.035 762.21 62.5883 761.708 61.5617 760.705C60.535 759.702 60.0217 758.267 60.0217 756.4V746.215H56.8717V743.45H60.0217V739.39H63.3817V743.45H68.7017V746.215H63.3817V756.26C63.3817 757.263 63.6267 758.033 64.1167 758.57C64.63 759.107 65.3533 759.375 66.2867 759.375C67.3133 759.375 68.1883 759.083 68.9117 758.5L69.9617 760.915ZM80.7789 743.275C83.3455 743.275 85.3055 743.905 86.6589 745.165C88.0355 746.425 88.7239 748.303 88.7239 750.8V762H85.5389V759.55C84.9789 760.413 84.1739 761.078 83.1239 761.545C82.0972 761.988 80.8722 762.21 79.4489 762.21C77.3722 762.21 75.7039 761.708 74.4439 760.705C73.2072 759.702 72.5889 758.383 72.5889 756.75C72.5889 755.117 73.1839 753.81 74.3739 752.83C75.5639 751.827 77.4539 751.325 80.0439 751.325H85.3639V750.66C85.3639 749.213 84.9439 748.105 84.1039 747.335C83.2639 746.565 82.0272 746.18 80.3939 746.18C79.2972 746.18 78.2239 746.367 77.1739 746.74C76.1239 747.09 75.2372 747.568 74.5139 748.175L73.1139 745.655C74.0705 744.885 75.2139 744.302 76.5439 743.905C77.8739 743.485 79.2855 743.275 80.7789 743.275ZM80.0089 759.62C81.2922 759.62 82.4005 759.34 83.3339 758.78C84.2672 758.197 84.9439 757.38 85.3639 756.33V753.74H80.1839C77.3372 753.74 75.9139 754.697 75.9139 756.61C75.9139 757.543 76.2755 758.278 76.9989 758.815C77.7222 759.352 78.7255 759.62 80.0089 759.62ZM94.9418 743.45H98.3018V762H94.9418V743.45ZM96.6218 739.88C95.9685 739.88 95.4202 739.67 94.9768 739.25C94.5568 738.83 94.3468 738.317 94.3468 737.71C94.3468 737.103 94.5568 736.59 94.9768 736.17C95.4202 735.727 95.9685 735.505 96.6218 735.505C97.2752 735.505 97.8118 735.715 98.2318 736.135C98.6752 736.532 98.8968 737.033 98.8968 737.64C98.8968 738.27 98.6752 738.807 98.2318 739.25C97.8118 739.67 97.2752 739.88 96.6218 739.88ZM104.717 736.03H108.077V762H104.717V736.03ZM131.258 752.83C131.258 753.087 131.234 753.425 131.188 753.845H116.138C116.348 755.478 117.059 756.797 118.273 757.8C119.509 758.78 121.038 759.27 122.858 759.27C125.074 759.27 126.859 758.523 128.213 757.03L130.068 759.2C129.228 760.18 128.178 760.927 126.918 761.44C125.681 761.953 124.293 762.21 122.753 762.21C120.793 762.21 119.054 761.813 117.538 761.02C116.021 760.203 114.843 759.072 114.003 757.625C113.186 756.178 112.778 754.545 112.778 752.725C112.778 750.928 113.174 749.307 113.968 747.86C114.784 746.413 115.893 745.293 117.293 744.5C118.716 743.683 120.314 743.275 122.088 743.275C123.861 743.275 125.436 743.683 126.813 744.5C128.213 745.293 129.298 746.413 130.068 747.86C130.861 749.307 131.258 750.963 131.258 752.83ZM122.088 746.11C120.478 746.11 119.124 746.6 118.028 747.58C116.954 748.56 116.324 749.843 116.138 751.43H128.038C127.851 749.867 127.209 748.595 126.113 747.615C125.039 746.612 123.698 746.11 122.088 746.11ZM153.423 736.03V762H150.203V759.06C149.457 760.087 148.512 760.868 147.368 761.405C146.225 761.942 144.965 762.21 143.588 762.21C141.792 762.21 140.182 761.813 138.758 761.02C137.335 760.227 136.215 759.118 135.398 757.695C134.605 756.248 134.208 754.592 134.208 752.725C134.208 750.858 134.605 749.213 135.398 747.79C136.215 746.367 137.335 745.258 138.758 744.465C140.182 743.672 141.792 743.275 143.588 743.275C144.918 743.275 146.143 743.532 147.263 744.045C148.383 744.535 149.317 745.27 150.063 746.25V736.03H153.423ZM143.868 759.27C145.035 759.27 146.097 759.002 147.053 758.465C148.01 757.905 148.757 757.135 149.293 756.155C149.83 755.152 150.098 754.008 150.098 752.725C150.098 751.442 149.83 750.31 149.293 749.33C148.757 748.327 148.01 747.557 147.053 747.02C146.097 746.483 145.035 746.215 143.868 746.215C142.678 746.215 141.605 746.483 140.648 747.02C139.715 747.557 138.968 748.327 138.408 749.33C137.872 750.31 137.603 751.442 137.603 752.725C137.603 754.008 137.872 755.152 138.408 756.155C138.968 757.135 139.715 757.905 140.648 758.465C141.605 759.002 142.678 759.27 143.868 759.27ZM187.45 758.955V762H169.67V737.5H186.96V740.545H173.17V748.07H185.455V751.045H173.17V758.955H187.45ZM202.532 743.275C204.889 743.275 206.756 743.963 208.132 745.34C209.532 746.693 210.232 748.688 210.232 751.325V762H206.872V751.71C206.872 749.913 206.441 748.56 205.577 747.65C204.714 746.74 203.477 746.285 201.867 746.285C200.047 746.285 198.612 746.822 197.562 747.895C196.512 748.945 195.987 750.462 195.987 752.445V762H192.627V743.45H195.847V746.25C196.524 745.293 197.434 744.558 198.577 744.045C199.744 743.532 201.062 743.275 202.532 743.275ZM234.298 743.45V759.48C234.298 762.723 233.493 765.115 231.883 766.655C230.273 768.218 227.87 769 224.673 769C222.923 769 221.255 768.755 219.668 768.265C218.081 767.798 216.798 767.122 215.818 766.235L217.428 763.645C218.291 764.392 219.353 764.975 220.613 765.395C221.896 765.838 223.215 766.06 224.568 766.06C226.738 766.06 228.336 765.547 229.363 764.52C230.413 763.493 230.938 761.93 230.938 759.83V758.36C230.145 759.317 229.165 760.04 227.998 760.53C226.855 760.997 225.606 761.23 224.253 761.23C222.48 761.23 220.87 760.857 219.423 760.11C218 759.34 216.88 758.278 216.063 756.925C215.246 755.548 214.838 753.985 214.838 752.235C214.838 750.485 215.246 748.933 216.063 747.58C216.88 746.203 218 745.142 219.423 744.395C220.87 743.648 222.48 743.275 224.253 743.275C225.653 743.275 226.948 743.532 228.138 744.045C229.351 744.558 230.343 745.317 231.113 746.32V743.45H234.298ZM224.638 758.29C225.851 758.29 226.936 758.033 227.893 757.52C228.873 757.007 229.631 756.295 230.168 755.385C230.728 754.452 231.008 753.402 231.008 752.235C231.008 750.438 230.413 748.992 229.223 747.895C228.033 746.775 226.505 746.215 224.638 746.215C222.748 746.215 221.208 746.775 220.018 747.895C218.828 748.992 218.233 750.438 218.233 752.235C218.233 753.402 218.501 754.452 219.038 755.385C219.598 756.295 220.356 757.007 221.313 757.52C222.293 758.033 223.401 758.29 224.638 758.29ZM240.718 743.45H244.078V762H240.718V743.45ZM242.398 739.88C241.745 739.88 241.197 739.67 240.753 739.25C240.333 738.83 240.123 738.317 240.123 737.71C240.123 737.103 240.333 736.59 240.753 736.17C241.197 735.727 241.745 735.505 242.398 735.505C243.052 735.505 243.588 735.715 244.008 736.135C244.452 736.532 244.673 737.033 244.673 737.64C244.673 738.27 244.452 738.807 244.008 739.25C243.588 739.67 243.052 739.88 242.398 739.88ZM260.399 743.275C262.755 743.275 264.622 743.963 265.999 745.34C267.399 746.693 268.099 748.688 268.099 751.325V762H264.739V751.71C264.739 749.913 264.307 748.56 263.444 747.65C262.58 746.74 261.344 746.285 259.734 746.285C257.914 746.285 256.479 746.822 255.429 747.895C254.379 748.945 253.854 750.462 253.854 752.445V762H250.494V743.45H253.714V746.25C254.39 745.293 255.3 744.558 256.444 744.045C257.61 743.532 258.929 743.275 260.399 743.275ZM291.184 752.83C291.184 753.087 291.161 753.425 291.114 753.845H276.064C276.274 755.478 276.986 756.797 278.199 757.8C279.436 758.78 280.964 759.27 282.784 759.27C285.001 759.27 286.786 758.523 288.139 757.03L289.994 759.2C289.154 760.18 288.104 760.927 286.844 761.44C285.608 761.953 284.219 762.21 282.679 762.21C280.719 762.21 278.981 761.813 277.464 761.02C275.948 760.203 274.769 759.072 273.929 757.625C273.113 756.178 272.704 754.545 272.704 752.725C272.704 750.928 273.101 749.307 273.894 747.86C274.711 746.413 275.819 745.293 277.219 744.5C278.643 743.683 280.241 743.275 282.014 743.275C283.788 743.275 285.363 743.683 286.739 744.5C288.139 745.293 289.224 746.413 289.994 747.86C290.788 749.307 291.184 750.963 291.184 752.83ZM282.014 746.11C280.404 746.11 279.051 746.6 277.954 747.58C276.881 748.56 276.251 749.843 276.064 751.43H287.964C287.778 749.867 287.136 748.595 286.039 747.615C284.966 746.612 283.624 746.11 282.014 746.11ZM312.615 752.83C312.615 753.087 312.592 753.425 312.545 753.845H297.495C297.705 755.478 298.417 756.797 299.63 757.8C300.867 758.78 302.395 759.27 304.215 759.27C306.432 759.27 308.217 758.523 309.57 757.03L311.425 759.2C310.585 760.18 309.535 760.927 308.275 761.44C307.038 761.953 305.65 762.21 304.11 762.21C302.15 762.21 300.412 761.813 298.895 761.02C297.378 760.203 296.2 759.072 295.36 757.625C294.543 756.178 294.135 754.545 294.135 752.725C294.135 750.928 294.532 749.307 295.325 747.86C296.142 746.413 297.25 745.293 298.65 744.5C300.073 743.683 301.672 743.275 303.445 743.275C305.218 743.275 306.793 743.683 308.17 744.5C309.57 745.293 310.655 746.413 311.425 747.86C312.218 749.307 312.615 750.963 312.615 752.83ZM303.445 746.11C301.835 746.11 300.482 746.6 299.385 747.58C298.312 748.56 297.682 749.843 297.495 751.43H309.395C309.208 749.867 308.567 748.595 307.47 747.615C306.397 746.612 305.055 746.11 303.445 746.11ZM320.501 746.565C321.084 745.492 321.947 744.675 323.091 744.115C324.234 743.555 325.622 743.275 327.256 743.275V746.53C327.069 746.507 326.812 746.495 326.486 746.495C324.666 746.495 323.231 747.043 322.181 748.14C321.154 749.213 320.641 750.753 320.641 752.76V762H317.281V743.45H320.501V746.565ZM331.397 743.45H334.757V762H331.397V743.45ZM333.077 739.88C332.424 739.88 331.875 739.67 331.432 739.25C331.012 738.83 330.802 738.317 330.802 737.71C330.802 737.103 331.012 736.59 331.432 736.17C331.875 735.727 332.424 735.505 333.077 735.505C333.73 735.505 334.267 735.715 334.687 736.135C335.13 736.532 335.352 737.033 335.352 737.64C335.352 738.27 335.13 738.807 334.687 739.25C334.267 739.67 333.73 739.88 333.077 739.88ZM351.077 743.275C353.434 743.275 355.301 743.963 356.677 745.34C358.077 746.693 358.777 748.688 358.777 751.325V762H355.417V751.71C355.417 749.913 354.986 748.56 354.122 747.65C353.259 746.74 352.022 746.285 350.412 746.285C348.592 746.285 347.157 746.822 346.107 747.895C345.057 748.945 344.532 750.462 344.532 752.445V762H341.172V743.45H344.392V746.25C345.069 745.293 345.979 744.558 347.122 744.045C348.289 743.532 349.607 743.275 351.077 743.275ZM382.843 743.45V759.48C382.843 762.723 382.038 765.115 380.428 766.655C378.818 768.218 376.415 769 373.218 769C371.468 769 369.8 768.755 368.213 768.265C366.626 767.798 365.343 767.122 364.363 766.235L365.973 763.645C366.836 764.392 367.898 764.975 369.158 765.395C370.441 765.838 371.76 766.06 373.113 766.06C375.283 766.06 376.881 765.547 377.908 764.52C378.958 763.493 379.483 761.93 379.483 759.83V758.36C378.69 759.317 377.71 760.04 376.543 760.53C375.4 760.997 374.151 761.23 372.798 761.23C371.025 761.23 369.415 760.857 367.968 760.11C366.545 759.34 365.425 758.278 364.608 756.925C363.791 755.548 363.383 753.985 363.383 752.235C363.383 750.485 363.791 748.933 364.608 747.58C365.425 746.203 366.545 745.142 367.968 744.395C369.415 743.648 371.025 743.275 372.798 743.275C374.198 743.275 375.493 743.532 376.683 744.045C377.896 744.558 378.888 745.317 379.658 746.32V743.45H382.843ZM373.183 758.29C374.396 758.29 375.481 758.033 376.438 757.52C377.418 757.007 378.176 756.295 378.713 755.385C379.273 754.452 379.553 753.402 379.553 752.235C379.553 750.438 378.958 748.992 377.768 747.895C376.578 746.775 375.05 746.215 373.183 746.215C371.293 746.215 369.753 746.775 368.563 747.895C367.373 748.992 366.778 750.438 366.778 752.235C366.778 753.402 367.046 754.452 367.583 755.385C368.143 756.295 368.901 757.007 369.858 757.52C370.838 758.033 371.946 758.29 373.183 758.29Z" fill="black"/>
<path d="M59.8164 980.5C62.9898 980.5 65.4864 981.258 67.3064 982.775C69.1264 984.292 70.0364 986.38 70.0364 989.04C70.0364 991.7 69.1264 993.788 67.3064 995.305C65.4864 996.822 62.9898 997.58 59.8164 997.58H53.7614V1005H50.2614V980.5H59.8164ZM59.7114 994.535C61.9281 994.535 63.6198 994.068 64.7864 993.135C65.9531 992.178 66.5364 990.813 66.5364 989.04C66.5364 987.267 65.9531 985.913 64.7864 984.98C63.6198 984.023 61.9281 983.545 59.7114 983.545H53.7614V994.535H59.7114ZM77.6008 989.565C78.1841 988.492 79.0475 987.675 80.1908 987.115C81.3341 986.555 82.7225 986.275 84.3558 986.275V989.53C84.1691 989.507 83.9125 989.495 83.5858 989.495C81.7658 989.495 80.3308 990.043 79.2808 991.14C78.2541 992.213 77.7408 993.753 77.7408 995.76V1005H74.3808V986.45H77.6008V989.565ZM96.2711 1005.21C94.4278 1005.21 92.7711 1004.8 91.3011 1003.98C89.8311 1003.17 88.6761 1002.05 87.8361 1000.62C87.0194 999.178 86.6111 997.545 86.6111 995.725C86.6111 993.905 87.0194 992.283 87.8361 990.86C88.6761 989.413 89.8311 988.293 91.3011 987.5C92.7711 986.683 94.4278 986.275 96.2711 986.275C98.1144 986.275 99.7594 986.683 101.206 987.5C102.676 988.293 103.819 989.413 104.636 990.86C105.476 992.283 105.896 993.905 105.896 995.725C105.896 997.545 105.476 999.178 104.636 1000.62C103.819 1002.05 102.676 1003.17 101.206 1003.98C99.7594 1004.8 98.1144 1005.21 96.2711 1005.21ZM96.2711 1002.27C97.4611 1002.27 98.5228 1002 99.4561 1001.46C100.413 1000.9 101.159 1000.13 101.696 999.155C102.233 998.152 102.501 997.008 102.501 995.725C102.501 994.442 102.233 993.31 101.696 992.33C101.159 991.327 100.413 990.557 99.4561 990.02C98.5228 989.483 97.4611 989.215 96.2711 989.215C95.0811 989.215 94.0078 989.483 93.0511 990.02C92.1178 990.557 91.3711 991.327 90.8111 992.33C90.2744 993.31 90.0061 994.442 90.0061 995.725C90.0061 997.008 90.2744 998.152 90.8111 999.155C91.3711 1000.13 92.1178 1000.9 93.0511 1001.46C94.0078 1002 95.0811 1002.27 96.2711 1002.27ZM108.163 1012C107.346 1012 106.588 1011.91 105.888 1011.72C105.188 1011.53 104.605 1011.25 104.138 1010.88L105.223 1008.29C105.923 1008.87 106.833 1009.17 107.953 1009.17C108.84 1009.17 109.516 1008.89 109.983 1008.33C110.473 1007.79 110.718 1006.98 110.718 1005.91V986.45H114.078V1005.84C114.078 1007.75 113.565 1009.26 112.538 1010.36C111.511 1011.45 110.053 1012 108.163 1012ZM112.398 982.88C111.745 982.88 111.196 982.67 110.753 982.25C110.333 981.83 110.123 981.317 110.123 980.71C110.123 980.103 110.333 979.59 110.753 979.17C111.196 978.727 111.745 978.505 112.398 978.505C113.051 978.505 113.588 978.715 114.008 979.135C114.451 979.532 114.673 980.033 114.673 980.64C114.673 981.27 114.451 981.807 114.008 982.25C113.588 982.67 113.051 982.88 112.398 982.88ZM137.254 995.83C137.254 996.087 137.231 996.425 137.184 996.845H122.134C122.344 998.478 123.056 999.797 124.269 1000.8C125.506 1001.78 127.034 1002.27 128.854 1002.27C131.071 1002.27 132.856 1001.52 134.209 1000.03L136.064 1002.2C135.224 1003.18 134.174 1003.93 132.914 1004.44C131.678 1004.95 130.289 1005.21 128.749 1005.21C126.789 1005.21 125.051 1004.81 123.534 1004.02C122.018 1003.2 120.839 1002.07 119.999 1000.62C119.183 999.178 118.774 997.545 118.774 995.725C118.774 993.928 119.171 992.307 119.964 990.86C120.781 989.413 121.889 988.293 123.289 987.5C124.713 986.683 126.311 986.275 128.084 986.275C129.858 986.275 131.433 986.683 132.809 987.5C134.209 988.293 135.294 989.413 136.064 990.86C136.858 992.307 137.254 993.963 137.254 995.83ZM128.084 989.11C126.474 989.11 125.121 989.6 124.024 990.58C122.951 991.56 122.321 992.843 122.134 994.43H134.034C133.848 992.867 133.206 991.595 132.109 990.615C131.036 989.612 129.694 989.11 128.084 989.11ZM150.005 1005.21C148.115 1005.21 146.423 1004.8 144.93 1003.98C143.46 1003.17 142.305 1002.05 141.465 1000.62C140.625 999.178 140.205 997.545 140.205 995.725C140.205 993.905 140.625 992.283 141.465 990.86C142.305 989.413 143.46 988.293 144.93 987.5C146.423 986.683 148.115 986.275 150.005 986.275C151.685 986.275 153.178 986.613 154.485 987.29C155.815 987.967 156.842 988.947 157.565 990.23L155.01 991.875C154.427 990.988 153.703 990.323 152.84 989.88C151.977 989.437 151.02 989.215 149.97 989.215C148.757 989.215 147.66 989.483 146.68 990.02C145.723 990.557 144.965 991.327 144.405 992.33C143.868 993.31 143.6 994.442 143.6 995.725C143.6 997.032 143.868 998.187 144.405 999.19C144.965 1000.17 145.723 1000.93 146.68 1001.46C147.66 1002 148.757 1002.27 149.97 1002.27C151.02 1002.27 151.977 1002.05 152.84 1001.6C153.703 1001.16 154.427 1000.5 155.01 999.61L157.565 1001.22C156.842 1002.5 155.815 1003.49 154.485 1004.19C153.178 1004.87 151.685 1005.21 150.005 1005.21ZM172.584 1003.91C172.094 1004.33 171.488 1004.66 170.764 1004.89C170.041 1005.11 169.294 1005.21 168.524 1005.21C166.658 1005.21 165.211 1004.71 164.184 1003.7C163.158 1002.7 162.644 1001.27 162.644 999.4V989.215H159.494V986.45H162.644V982.39H166.004V986.45H171.324V989.215H166.004V999.26C166.004 1000.26 166.249 1001.03 166.739 1001.57C167.253 1002.11 167.976 1002.37 168.909 1002.37C169.936 1002.37 170.811 1002.08 171.534 1001.5L172.584 1003.91ZM204.316 1001.95V1005H186.536V980.5H203.826V983.545H190.036V991.07H202.321V994.045H190.036V1001.95H204.316ZM220.913 1005L215.558 997.895L210.133 1005H206.388L213.703 995.515L206.738 986.45H210.483L215.593 993.135L220.668 986.45H224.343L217.343 995.515L224.728 1005H220.913ZM244.544 995.83C244.544 996.087 244.521 996.425 244.474 996.845H229.424C229.634 998.478 230.346 999.797 231.559 1000.8C232.796 1001.78 234.324 1002.27 236.144 1002.27C238.361 1002.27 240.146 1001.52 241.499 1000.03L243.354 1002.2C242.514 1003.18 241.464 1003.93 240.204 1004.44C238.968 1004.95 237.579 1005.21 236.039 1005.21C234.079 1005.21 232.341 1004.81 230.824 1004.02C229.308 1003.2 228.129 1002.07 227.289 1000.62C226.473 999.178 226.064 997.545 226.064 995.725C226.064 993.928 226.461 992.307 227.254 990.86C228.071 989.413 229.179 988.293 230.579 987.5C232.003 986.683 233.601 986.275 235.374 986.275C237.148 986.275 238.723 986.683 240.099 987.5C241.499 988.293 242.584 989.413 243.354 990.86C244.148 992.307 244.544 993.963 244.544 995.83ZM235.374 989.11C233.764 989.11 232.411 989.6 231.314 990.58C230.241 991.56 229.611 992.843 229.424 994.43H241.324C241.138 992.867 240.496 991.595 239.399 990.615C238.326 989.612 236.984 989.11 235.374 989.11ZM257.295 1005.21C255.405 1005.21 253.713 1004.8 252.22 1003.98C250.75 1003.17 249.595 1002.05 248.755 1000.62C247.915 999.178 247.495 997.545 247.495 995.725C247.495 993.905 247.915 992.283 248.755 990.86C249.595 989.413 250.75 988.293 252.22 987.5C253.713 986.683 255.405 986.275 257.295 986.275C258.975 986.275 260.468 986.613 261.775 987.29C263.105 987.967 264.132 988.947 264.855 990.23L262.3 991.875C261.717 990.988 260.993 990.323 260.13 989.88C259.267 989.437 258.31 989.215 257.26 989.215C256.047 989.215 254.95 989.483 253.97 990.02C253.013 990.557 252.255 991.327 251.695 992.33C251.158 993.31 250.89 994.442 250.89 995.725C250.89 997.032 251.158 998.187 251.695 999.19C252.255 1000.17 253.013 1000.93 253.97 1001.46C254.95 1002 256.047 1002.27 257.26 1002.27C258.31 1002.27 259.267 1002.05 260.13 1001.6C260.993 1001.16 261.717 1000.5 262.3 999.61L264.855 1001.22C264.132 1002.5 263.105 1003.49 261.775 1004.19C260.468 1004.87 258.975 1005.21 257.295 1005.21ZM286.495 986.45V1005H283.31V1002.2C282.633 1003.16 281.735 1003.9 280.615 1004.44C279.518 1004.95 278.317 1005.21 277.01 1005.21C274.537 1005.21 272.588 1004.53 271.165 1003.18C269.742 1001.8 269.03 999.785 269.03 997.125V986.45H272.39V996.74C272.39 998.537 272.822 999.902 273.685 1000.83C274.548 1001.74 275.785 1002.2 277.395 1002.2C279.168 1002.2 280.568 1001.66 281.595 1000.59C282.622 999.517 283.135 998 283.135 996.04V986.45H286.495ZM303.322 1003.91C302.832 1004.33 302.225 1004.66 301.502 1004.89C300.778 1005.11 300.032 1005.21 299.262 1005.21C297.395 1005.21 295.948 1004.71 294.922 1003.7C293.895 1002.7 293.382 1001.27 293.382 999.4V989.215H290.232V986.45H293.382V982.39H296.742V986.45H302.062V989.215H296.742V999.26C296.742 1000.26 296.987 1001.03 297.477 1001.57C297.99 1002.11 298.713 1002.37 299.647 1002.37C300.673 1002.37 301.548 1002.08 302.272 1001.5L303.322 1003.91ZM307.384 986.45H310.744V1005H307.384V986.45ZM309.064 982.88C308.41 982.88 307.862 982.67 307.419 982.25C306.999 981.83 306.789 981.317 306.789 980.71C306.789 980.103 306.999 979.59 307.419 979.17C307.862 978.727 308.41 978.505 309.064 978.505C309.717 978.505 310.254 978.715 310.674 979.135C311.117 979.532 311.339 980.033 311.339 980.64C311.339 981.27 311.117 981.807 310.674 982.25C310.254 982.67 309.717 982.88 309.064 982.88ZM325.104 1005.21C323.261 1005.21 321.604 1004.8 320.134 1003.98C318.664 1003.17 317.509 1002.05 316.669 1000.62C315.852 999.178 315.444 997.545 315.444 995.725C315.444 993.905 315.852 992.283 316.669 990.86C317.509 989.413 318.664 988.293 320.134 987.5C321.604 986.683 323.261 986.275 325.104 986.275C326.947 986.275 328.592 986.683 330.039 987.5C331.509 988.293 332.652 989.413 333.469 990.86C334.309 992.283 334.729 993.905 334.729 995.725C334.729 997.545 334.309 999.178 333.469 1000.62C332.652 1002.05 331.509 1003.17 330.039 1003.98C328.592 1004.8 326.947 1005.21 325.104 1005.21ZM325.104 1002.27C326.294 1002.27 327.356 1002 328.289 1001.46C329.246 1000.9 329.992 1000.13 330.529 999.155C331.066 998.152 331.334 997.008 331.334 995.725C331.334 994.442 331.066 993.31 330.529 992.33C329.992 991.327 329.246 990.557 328.289 990.02C327.356 989.483 326.294 989.215 325.104 989.215C323.914 989.215 322.841 989.483 321.884 990.02C320.951 990.557 320.204 991.327 319.644 992.33C319.107 993.31 318.839 994.442 318.839 995.725C318.839 997.008 319.107 998.152 319.644 999.155C320.204 1000.13 320.951 1000.9 321.884 1001.46C322.841 1002 323.914 1002.27 325.104 1002.27ZM349.281 986.275C351.638 986.275 353.504 986.963 354.881 988.34C356.281 989.693 356.981 991.688 356.981 994.325V1005H353.621V994.71C353.621 992.913 353.189 991.56 352.326 990.65C351.463 989.74 350.226 989.285 348.616 989.285C346.796 989.285 345.361 989.822 344.311 990.895C343.261 991.945 342.736 993.462 342.736 995.445V1005H339.376V986.45H342.596V989.25C343.273 988.293 344.183 987.558 345.326 987.045C346.493 986.532 347.811 986.275 349.281 986.275ZM217.598 1039.39L214.343 1036.13C212.173 1038.23 209.443 1039.28 206.153 1039.28C204.52 1039.28 203.05 1039.01 201.743 1038.47C200.436 1037.94 199.41 1037.19 198.663 1036.23C197.94 1035.25 197.578 1034.15 197.578 1032.91C197.578 1031.42 198.033 1030.1 198.943 1028.95C199.876 1027.79 201.405 1026.6 203.528 1025.38C202.455 1024.31 201.696 1023.34 201.253 1022.48C200.81 1021.62 200.588 1020.72 200.588 1019.78C200.588 1018.13 201.183 1016.8 202.373 1015.79C203.586 1014.79 205.196 1014.29 207.203 1014.29C209.07 1014.29 210.551 1014.74 211.648 1015.65C212.745 1016.56 213.293 1017.81 213.293 1019.4C213.293 1020.64 212.885 1021.74 212.068 1022.72C211.275 1023.7 209.945 1024.73 208.078 1025.8L214.133 1031.82C214.833 1030.49 215.335 1029.01 215.638 1027.38L218.333 1028.25C217.913 1030.4 217.201 1032.27 216.198 1033.86L219.488 1037.14L217.598 1039.39ZM207.203 1016.74C206.106 1016.74 205.243 1017.02 204.613 1017.58C204.006 1018.12 203.703 1018.83 203.703 1019.72C203.703 1020.34 203.866 1020.95 204.193 1021.53C204.543 1022.12 205.208 1022.91 206.188 1023.91C207.798 1023 208.906 1022.22 209.513 1021.57C210.143 1020.92 210.458 1020.2 210.458 1019.43C210.458 1018.62 210.166 1017.96 209.583 1017.47C209.023 1016.98 208.23 1016.74 207.203 1016.74ZM206.363 1036.48C208.79 1036.48 210.785 1035.71 212.348 1034.17L205.383 1027.24C203.703 1028.17 202.525 1029.05 201.848 1029.86C201.195 1030.66 200.868 1031.56 200.868 1032.56C200.868 1033.73 201.37 1034.67 202.373 1035.39C203.4 1036.12 204.73 1036.48 206.363 1036.48ZM14.7321 1073.28C12.2821 1073.28 10.0654 1072.74 8.08205 1071.67C6.12205 1070.57 4.58205 1069.08 3.46205 1067.19C2.34205 1065.28 1.78205 1063.13 1.78205 1060.75C1.78205 1058.37 2.34205 1056.23 3.46205 1054.34C4.58205 1052.43 6.13372 1050.94 8.11705 1049.86C10.1004 1048.77 12.3171 1048.22 14.7671 1048.22C16.6804 1048.22 18.4304 1048.55 20.0171 1049.2C21.6037 1049.83 22.9571 1050.77 24.0771 1052.03L21.8021 1054.24C19.9587 1052.3 17.6604 1051.33 14.9071 1051.33C13.0871 1051.33 11.4421 1051.74 9.97205 1052.56C8.50205 1053.38 7.34705 1054.51 6.50705 1055.95C5.69038 1057.38 5.28205 1058.98 5.28205 1060.75C5.28205 1062.52 5.69038 1064.13 6.50705 1065.58C7.34705 1067 8.50205 1068.12 9.97205 1068.94C11.4421 1069.76 13.0871 1070.16 14.9071 1070.16C17.6371 1070.16 19.9354 1069.18 21.8021 1067.22L24.0771 1069.43C22.9571 1070.69 21.5921 1071.65 19.9821 1072.3C18.3954 1072.95 16.6454 1073.28 14.7321 1073.28ZM35.7389 1073.21C33.8956 1073.21 32.2389 1072.8 30.7689 1071.98C29.2989 1071.17 28.1439 1070.05 27.3039 1068.62C26.4872 1067.18 26.0789 1065.54 26.0789 1063.72C26.0789 1061.9 26.4872 1060.28 27.3039 1058.86C28.1439 1057.41 29.2989 1056.29 30.7689 1055.5C32.2389 1054.68 33.8956 1054.27 35.7389 1054.27C37.5822 1054.27 39.2272 1054.68 40.6739 1055.5C42.1439 1056.29 43.2872 1057.41 44.1039 1058.86C44.9439 1060.28 45.3639 1061.9 45.3639 1063.72C45.3639 1065.54 44.9439 1067.18 44.1039 1068.62C43.2872 1070.05 42.1439 1071.17 40.6739 1071.98C39.2272 1072.8 37.5822 1073.21 35.7389 1073.21ZM35.7389 1070.27C36.9289 1070.27 37.9906 1070 38.9239 1069.46C39.8806 1068.9 40.6272 1068.13 41.1639 1067.15C41.7006 1066.15 41.9689 1065.01 41.9689 1063.72C41.9689 1062.44 41.7006 1061.31 41.1639 1060.33C40.6272 1059.33 39.8806 1058.56 38.9239 1058.02C37.9906 1057.48 36.9289 1057.21 35.7389 1057.21C34.5489 1057.21 33.4756 1057.48 32.5189 1058.02C31.5856 1058.56 30.8389 1059.33 30.2789 1060.33C29.7422 1061.31 29.4739 1062.44 29.4739 1063.72C29.4739 1065.01 29.7422 1066.15 30.2789 1067.15C30.8389 1068.13 31.5856 1068.9 32.5189 1069.46C33.4756 1070 34.5489 1070.27 35.7389 1070.27ZM73.2157 1054.27C75.549 1054.27 77.3924 1054.95 78.7457 1056.3C80.1224 1057.66 80.8107 1059.66 80.8107 1062.32V1073H77.4507V1062.71C77.4507 1060.91 77.0307 1059.56 76.1907 1058.65C75.374 1057.74 74.1957 1057.28 72.6557 1057.28C70.9524 1057.28 69.599 1057.82 68.5957 1058.89C67.5924 1059.94 67.0907 1061.46 67.0907 1063.44V1073H63.7307V1062.71C63.7307 1060.91 63.3107 1059.56 62.4707 1058.65C61.654 1057.74 60.4757 1057.28 58.9357 1057.28C57.2324 1057.28 55.879 1057.82 54.8757 1058.89C53.8724 1059.94 53.3707 1061.46 53.3707 1063.44V1073H50.0107V1054.45H53.2307V1057.21C53.9074 1056.26 54.794 1055.53 55.8907 1055.04C56.9874 1054.53 58.2357 1054.27 59.6357 1054.27C61.0824 1054.27 62.3657 1054.57 63.4857 1055.15C64.6057 1055.73 65.469 1056.58 66.0757 1057.7C66.7757 1056.63 67.744 1055.79 68.9807 1055.18C70.2407 1054.58 71.6524 1054.27 73.2157 1054.27ZM110.198 1054.27C112.531 1054.27 114.375 1054.95 115.728 1056.3C117.105 1057.66 117.793 1059.66 117.793 1062.32V1073H114.433V1062.71C114.433 1060.91 114.013 1059.56 113.173 1058.65C112.356 1057.74 111.178 1057.28 109.638 1057.28C107.935 1057.28 106.581 1057.82 105.578 1058.89C104.575 1059.94 104.073 1061.46 104.073 1063.44V1073H100.713V1062.71C100.713 1060.91 100.293 1059.56 99.4531 1058.65C98.6364 1057.74 97.4581 1057.28 95.9181 1057.28C94.2148 1057.28 92.8614 1057.82 91.8581 1058.89C90.8548 1059.94 90.3531 1061.46 90.3531 1063.44V1073H86.9931V1054.45H90.2131V1057.21C90.8898 1056.26 91.7764 1055.53 92.8731 1055.04C93.9698 1054.53 95.2181 1054.27 96.6181 1054.27C98.0648 1054.27 99.3481 1054.57 100.468 1055.15C101.588 1055.73 102.451 1056.58 103.058 1057.7C103.758 1056.63 104.726 1055.79 105.963 1055.18C107.223 1054.58 108.635 1054.27 110.198 1054.27ZM123.976 1054.45H127.336V1073H123.976V1054.45ZM125.656 1050.88C125.002 1050.88 124.454 1050.67 124.011 1050.25C123.591 1049.83 123.381 1049.32 123.381 1048.71C123.381 1048.1 123.591 1047.59 124.011 1047.17C124.454 1046.73 125.002 1046.5 125.656 1046.5C126.309 1046.5 126.846 1046.71 127.266 1047.13C127.709 1047.53 127.931 1048.03 127.931 1048.64C127.931 1049.27 127.709 1049.81 127.266 1050.25C126.846 1050.67 126.309 1050.88 125.656 1050.88ZM139.071 1073.21C137.554 1073.21 136.096 1073.01 134.696 1072.61C133.296 1072.19 132.199 1071.67 131.406 1071.04L132.806 1068.38C133.623 1068.96 134.614 1069.43 135.781 1069.78C136.948 1070.13 138.126 1070.3 139.316 1070.3C142.256 1070.3 143.726 1069.46 143.726 1067.78C143.726 1067.22 143.528 1066.78 143.131 1066.45C142.734 1066.13 142.233 1065.89 141.626 1065.75C141.043 1065.59 140.203 1065.42 139.106 1065.23C137.613 1065 136.388 1064.73 135.431 1064.42C134.498 1064.12 133.693 1063.61 133.016 1062.88C132.339 1062.16 132.001 1061.15 132.001 1059.84C132.001 1058.16 132.701 1056.82 134.101 1055.81C135.501 1054.79 137.379 1054.27 139.736 1054.27C140.973 1054.27 142.209 1054.43 143.446 1054.73C144.683 1055.03 145.698 1055.44 146.491 1055.95L145.056 1058.61C143.539 1057.63 141.754 1057.14 139.701 1057.14C138.278 1057.14 137.193 1057.38 136.446 1057.84C135.699 1058.31 135.326 1058.93 135.326 1059.7C135.326 1060.31 135.536 1060.78 135.956 1061.13C136.376 1061.48 136.889 1061.74 137.496 1061.9C138.126 1062.07 139.001 1062.25 140.121 1062.46C141.614 1062.72 142.816 1063 143.726 1063.3C144.659 1063.58 145.453 1064.07 146.106 1064.77C146.759 1065.47 147.086 1066.45 147.086 1067.71C147.086 1069.39 146.363 1070.74 144.916 1071.74C143.493 1072.72 141.544 1073.21 139.071 1073.21ZM151.285 1054.45H154.645V1073H151.285V1054.45ZM152.965 1050.88C152.312 1050.88 151.763 1050.67 151.32 1050.25C150.9 1049.83 150.69 1049.32 150.69 1048.71C150.69 1048.1 150.9 1047.59 151.32 1047.17C151.763 1046.73 152.312 1046.5 152.965 1046.5C153.618 1046.5 154.155 1046.71 154.575 1047.13C155.018 1047.53 155.24 1048.03 155.24 1048.64C155.24 1049.27 155.018 1049.81 154.575 1050.25C154.155 1050.67 153.618 1050.88 152.965 1050.88ZM169.005 1073.21C167.162 1073.21 165.505 1072.8 164.035 1071.98C162.565 1071.17 161.41 1070.05 160.57 1068.62C159.754 1067.18 159.345 1065.54 159.345 1063.72C159.345 1061.9 159.754 1060.28 160.57 1058.86C161.41 1057.41 162.565 1056.29 164.035 1055.5C165.505 1054.68 167.162 1054.27 169.005 1054.27C170.849 1054.27 172.494 1054.68 173.94 1055.5C175.41 1056.29 176.554 1057.41 177.37 1058.86C178.21 1060.28 178.63 1061.9 178.63 1063.72C178.63 1065.54 178.21 1067.18 177.37 1068.62C176.554 1070.05 175.41 1071.17 173.94 1071.98C172.494 1072.8 170.849 1073.21 169.005 1073.21ZM169.005 1070.27C170.195 1070.27 171.257 1070 172.19 1069.46C173.147 1068.9 173.894 1068.13 174.43 1067.15C174.967 1066.15 175.235 1065.01 175.235 1063.72C175.235 1062.44 174.967 1061.31 174.43 1060.33C173.894 1059.33 173.147 1058.56 172.19 1058.02C171.257 1057.48 170.195 1057.21 169.005 1057.21C167.815 1057.21 166.742 1057.48 165.785 1058.02C164.852 1058.56 164.105 1059.33 163.545 1060.33C163.009 1061.31 162.74 1062.44 162.74 1063.72C162.74 1065.01 163.009 1066.15 163.545 1067.15C164.105 1068.13 164.852 1068.9 165.785 1069.46C166.742 1070 167.815 1070.27 169.005 1070.27ZM193.182 1054.27C195.539 1054.27 197.406 1054.96 198.782 1056.34C200.182 1057.69 200.882 1059.69 200.882 1062.32V1073H197.522V1062.71C197.522 1060.91 197.091 1059.56 196.227 1058.65C195.364 1057.74 194.127 1057.28 192.517 1057.28C190.697 1057.28 189.262 1057.82 188.212 1058.89C187.162 1059.94 186.637 1061.46 186.637 1063.44V1073H183.277V1054.45H186.497V1057.25C187.174 1056.29 188.084 1055.56 189.227 1055.04C190.394 1054.53 191.712 1054.27 193.182 1054.27ZM207.101 1054.45H210.461V1073H207.101V1054.45ZM208.781 1050.88C208.127 1050.88 207.579 1050.67 207.136 1050.25C206.716 1049.83 206.506 1049.32 206.506 1048.71C206.506 1048.1 206.716 1047.59 207.136 1047.17C207.579 1046.73 208.127 1046.5 208.781 1046.5C209.434 1046.5 209.971 1046.71 210.391 1047.13C210.834 1047.53 211.056 1048.03 211.056 1048.64C211.056 1049.27 210.834 1049.81 210.391 1050.25C209.971 1050.67 209.434 1050.88 208.781 1050.88ZM226.781 1054.27C229.138 1054.27 231.004 1054.96 232.381 1056.34C233.781 1057.69 234.481 1059.69 234.481 1062.32V1073H231.121V1062.71C231.121 1060.91 230.689 1059.56 229.826 1058.65C228.963 1057.74 227.726 1057.28 226.116 1057.28C224.296 1057.28 222.861 1057.82 221.811 1058.89C220.761 1059.94 220.236 1061.46 220.236 1063.44V1073H216.876V1054.45H220.096V1057.25C220.773 1056.29 221.683 1055.56 222.826 1055.04C223.993 1054.53 225.311 1054.27 226.781 1054.27ZM258.547 1054.45V1070.48C258.547 1073.72 257.742 1076.12 256.132 1077.66C254.522 1079.22 252.118 1080 248.922 1080C247.172 1080 245.503 1079.76 243.917 1079.27C242.33 1078.8 241.047 1078.12 240.067 1077.24L241.677 1074.65C242.54 1075.39 243.602 1075.98 244.862 1076.4C246.145 1076.84 247.463 1077.06 248.817 1077.06C250.987 1077.06 252.585 1076.55 253.612 1075.52C254.662 1074.49 255.187 1072.93 255.187 1070.83V1069.36C254.393 1070.32 253.413 1071.04 252.247 1071.53C251.103 1072 249.855 1072.23 248.502 1072.23C246.728 1072.23 245.118 1071.86 243.672 1071.11C242.248 1070.34 241.128 1069.28 240.312 1067.92C239.495 1066.55 239.087 1064.98 239.087 1063.23C239.087 1061.48 239.495 1059.93 240.312 1058.58C241.128 1057.2 242.248 1056.14 243.672 1055.39C245.118 1054.65 246.728 1054.27 248.502 1054.27C249.902 1054.27 251.197 1054.53 252.387 1055.04C253.6 1055.56 254.592 1056.32 255.362 1057.32V1054.45H258.547ZM248.887 1069.29C250.1 1069.29 251.185 1069.03 252.142 1068.52C253.122 1068.01 253.88 1067.29 254.417 1066.38C254.977 1065.45 255.257 1064.4 255.257 1063.23C255.257 1061.44 254.662 1059.99 253.472 1058.89C252.282 1057.77 250.753 1057.21 248.887 1057.21C246.997 1057.21 245.457 1057.77 244.267 1058.89C243.077 1059.99 242.482 1061.44 242.482 1063.23C242.482 1064.4 242.75 1065.45 243.287 1066.38C243.847 1067.29 244.605 1068.01 245.562 1068.52C246.542 1069.03 247.65 1069.29 248.887 1069.29ZM281.996 1073.28C280.153 1073.28 278.368 1073 276.641 1072.44C274.938 1071.86 273.596 1071.11 272.616 1070.2L273.911 1067.47C274.844 1068.31 276.034 1069 277.481 1069.53C278.951 1070.05 280.456 1070.3 281.996 1070.3C284.026 1070.3 285.543 1069.97 286.546 1069.29C287.549 1068.59 288.051 1067.67 288.051 1066.52C288.051 1065.68 287.771 1065.01 287.211 1064.49C286.674 1063.96 285.998 1063.55 285.181 1063.27C284.388 1062.99 283.256 1062.67 281.786 1062.32C279.943 1061.88 278.449 1061.44 277.306 1060.99C276.186 1060.55 275.218 1059.87 274.401 1058.96C273.608 1058.03 273.211 1056.78 273.211 1055.22C273.211 1053.91 273.549 1052.73 274.226 1051.68C274.926 1050.63 275.976 1049.79 277.376 1049.16C278.776 1048.53 280.514 1048.22 282.591 1048.22C284.038 1048.22 285.461 1048.41 286.861 1048.78C288.261 1049.15 289.463 1049.69 290.466 1050.39L289.311 1053.19C288.284 1052.54 287.188 1052.05 286.021 1051.72C284.854 1051.37 283.711 1051.19 282.591 1051.19C280.608 1051.19 279.114 1051.56 278.111 1052.28C277.131 1053 276.641 1053.94 276.641 1055.08C276.641 1055.92 276.921 1056.61 277.481 1057.14C278.041 1057.66 278.729 1058.07 279.546 1058.37C280.386 1058.65 281.518 1058.95 282.941 1059.28C284.784 1059.72 286.266 1060.17 287.386 1060.61C288.506 1061.05 289.463 1061.73 290.256 1062.64C291.073 1063.55 291.481 1064.77 291.481 1066.31C291.481 1067.6 291.131 1068.78 290.431 1069.85C289.731 1070.9 288.669 1071.74 287.246 1072.37C285.823 1072.98 284.073 1073.28 281.996 1073.28ZM313.394 1054.45V1073H310.209V1070.2C309.533 1071.16 308.634 1071.9 307.514 1072.44C306.418 1072.95 305.216 1073.21 303.909 1073.21C301.436 1073.21 299.488 1072.53 298.064 1071.18C296.641 1069.8 295.929 1067.78 295.929 1065.12V1054.45H299.289V1064.74C299.289 1066.54 299.721 1067.9 300.584 1068.83C301.448 1069.74 302.684 1070.2 304.294 1070.2C306.068 1070.2 307.468 1069.66 308.494 1068.59C309.521 1067.52 310.034 1066 310.034 1064.04V1054.45H313.394ZM329.626 1054.27C331.423 1054.27 333.033 1054.67 334.456 1055.46C335.879 1056.26 336.988 1057.37 337.781 1058.79C338.598 1060.21 339.006 1061.86 339.006 1063.72C339.006 1065.59 338.598 1067.25 337.781 1068.69C336.988 1070.12 335.879 1071.23 334.456 1072.02C333.033 1072.81 331.423 1073.21 329.626 1073.21C328.296 1073.21 327.071 1072.95 325.951 1072.44C324.854 1071.93 323.921 1071.18 323.151 1070.2V1079.79H319.791V1054.45H323.011V1057.39C323.758 1056.36 324.703 1055.59 325.846 1055.08C326.989 1054.54 328.249 1054.27 329.626 1054.27ZM329.346 1070.27C330.536 1070.27 331.598 1070 332.531 1069.46C333.488 1068.9 334.234 1068.13 334.771 1067.15C335.331 1066.15 335.611 1065.01 335.611 1063.72C335.611 1062.44 335.331 1061.31 334.771 1060.33C334.234 1059.33 333.488 1058.56 332.531 1058.02C331.598 1057.48 330.536 1057.21 329.346 1057.21C328.179 1057.21 327.118 1057.49 326.161 1058.05C325.228 1058.59 324.481 1059.35 323.921 1060.33C323.384 1061.31 323.116 1062.44 323.116 1063.72C323.116 1065.01 323.384 1066.15 323.921 1067.15C324.458 1068.13 325.204 1068.9 326.161 1069.46C327.118 1070 328.179 1070.27 329.346 1070.27ZM353.483 1054.27C355.28 1054.27 356.89 1054.67 358.313 1055.46C359.737 1056.26 360.845 1057.37 361.638 1058.79C362.455 1060.21 362.863 1061.86 362.863 1063.72C362.863 1065.59 362.455 1067.25 361.638 1068.69C360.845 1070.12 359.737 1071.23 358.313 1072.02C356.89 1072.81 355.28 1073.21 353.483 1073.21C352.153 1073.21 350.928 1072.95 349.808 1072.44C348.712 1071.93 347.778 1071.18 347.008 1070.2V1079.79H343.648V1054.45H346.868V1057.39C347.615 1056.36 348.56 1055.59 349.703 1055.08C350.847 1054.54 352.107 1054.27 353.483 1054.27ZM353.203 1070.27C354.393 1070.27 355.455 1070 356.388 1069.46C357.345 1068.9 358.092 1068.13 358.628 1067.15C359.188 1066.15 359.468 1065.01 359.468 1063.72C359.468 1062.44 359.188 1061.31 358.628 1060.33C358.092 1059.33 357.345 1058.56 356.388 1058.02C355.455 1057.48 354.393 1057.21 353.203 1057.21C352.037 1057.21 350.975 1057.49 350.018 1058.05C349.085 1058.59 348.338 1059.35 347.778 1060.33C347.242 1061.31 346.973 1062.44 346.973 1063.72C346.973 1065.01 347.242 1066.15 347.778 1067.15C348.315 1068.13 349.062 1068.9 350.018 1069.46C350.975 1070 352.037 1070.27 353.203 1070.27ZM375.451 1073.21C373.607 1073.21 371.951 1072.8 370.481 1071.98C369.011 1071.17 367.856 1070.05 367.016 1068.62C366.199 1067.18 365.791 1065.54 365.791 1063.72C365.791 1061.9 366.199 1060.28 367.016 1058.86C367.856 1057.41 369.011 1056.29 370.481 1055.5C371.951 1054.68 373.607 1054.27 375.451 1054.27C377.294 1054.27 378.939 1054.68 380.386 1055.5C381.856 1056.29 382.999 1057.41 383.816 1058.86C384.656 1060.28 385.076 1061.9 385.076 1063.72C385.076 1065.54 384.656 1067.18 383.816 1068.62C382.999 1070.05 381.856 1071.17 380.386 1071.98C378.939 1072.8 377.294 1073.21 375.451 1073.21ZM375.451 1070.27C376.641 1070.27 377.702 1070 378.636 1069.46C379.592 1068.9 380.339 1068.13 380.876 1067.15C381.412 1066.15 381.681 1065.01 381.681 1063.72C381.681 1062.44 381.412 1061.31 380.876 1060.33C380.339 1059.33 379.592 1058.56 378.636 1058.02C377.702 1057.48 376.641 1057.21 375.451 1057.21C374.261 1057.21 373.187 1057.48 372.231 1058.02C371.297 1058.56 370.551 1059.33 369.991 1060.33C369.454 1061.31 369.186 1062.44 369.186 1063.72C369.186 1065.01 369.454 1066.15 369.991 1067.15C370.551 1068.13 371.297 1068.9 372.231 1069.46C373.187 1070 374.261 1070.27 375.451 1070.27ZM392.943 1057.56C393.526 1056.49 394.389 1055.67 395.533 1055.11C396.676 1054.55 398.064 1054.27 399.698 1054.27V1057.53C399.511 1057.51 399.254 1057.49 398.928 1057.49C397.108 1057.49 395.673 1058.04 394.623 1059.14C393.596 1060.21 393.083 1061.75 393.083 1063.76V1073H389.723V1054.45H392.943V1057.56ZM415.021 1071.91C414.531 1072.33 413.924 1072.66 413.201 1072.89C412.477 1073.11 411.731 1073.21 410.961 1073.21C409.094 1073.21 407.647 1072.71 406.621 1071.7C405.594 1070.7 405.081 1069.27 405.081 1067.4V1057.21H401.931V1054.45H405.081V1050.39H408.441V1054.45H413.761V1057.21H408.441V1067.26C408.441 1068.26 408.686 1069.03 409.176 1069.57C409.689 1070.11 410.412 1070.37 411.346 1070.37C412.372 1070.37 413.247 1070.08 413.971 1069.5L415.021 1071.91Z" fill="black"/>
<path d="M207 248.579L182 227.256L185.608 224.179L207 242.424L228.392 224.179L232 227.256L207 248.579Z" fill="#307672"/>
<path d="M207 262.794L182 241.471L185.608 238.394L207 256.639L228.392 238.394L232 241.471L207 262.794Z" fill="#307672"/>
<path d="M207 464.341L182 443.018L185.608 439.941L207 458.186L228.392 439.941L232 443.018L207 464.341Z" fill="#307672"/>
<path d="M207 478.556L182 457.233L185.608 454.156L207 472.401L228.392 454.156L232 457.233L207 478.556Z" fill="#307672"/>
<path d="M207 660.103L182 638.78L185.608 635.703L207 653.948L228.392 635.703L232 638.78L207 660.103Z" fill="#307672"/>
<path d="M207 674.318L182 652.995L185.608 649.918L207 668.163L228.392 649.918L232 652.995L207 674.318Z" fill="#307672"/>
<path d="M207 856.865L182 835.542L185.608 832.465L207 850.71L228.392 832.465L232 835.542L207 856.865Z" fill="#307672"/>
<path d="M207 869.414L182 848.091L185.608 845.013L207 863.259L228.392 845.013L232 848.091L207 869.414Z" fill="#307672"/>
</svg>
